<?xml version="1.0" encoding="UTF-8"?>
<svg width="503px" height="177px" viewBox="0 0 503 177" version="1.1" xmlns="http://www.w3.org/2000/svg" xmlns:xlink="http://www.w3.org/1999/xlink">
    <!-- Generator: Sketch 50 (54983) - http://www.bohemiancoding.com/sketch -->
    <title>Page 1</title>
    <desc>Created with Sketch.</desc>
    <defs>
        <polygon id="path-1" points="0 1 53.5099 1 53.5099 101.618 0 101.618"></polygon>
    </defs>
    <g id="Symbols" stroke="none" stroke-width="1" fill="none" fill-rule="evenodd">
        <g id="Logo" transform="translate(-136.000000, -55.000000)">
            <g id="Page-1" transform="translate(135.000000, 54.000000)">
                <path d="M6.564,22.162 L14.298,22.162 C17.891,22.162 20.617,21.465 22.477,20.07 C24.337,18.676 25.267,16.646 25.267,13.983 C25.267,11.194 24.305,9.156 22.381,7.866 C20.459,6.577 17.764,5.933 14.298,5.933 L6.564,5.933 L6.564,22.162 Z M2,2 L14.679,2 C16.961,2 19.032,2.245 20.892,2.729 C22.752,3.216 24.348,3.956 25.678,4.948 C27.011,5.943 28.034,7.19 28.753,8.689 C29.472,10.191 29.832,11.955 29.832,13.983 C29.832,16.013 29.462,17.777 28.723,19.277 C27.983,20.779 26.948,22.026 25.616,23.018 C24.285,24.012 22.677,24.762 20.796,25.269 C18.916,25.777 16.835,26.03 14.553,26.03 L6.564,26.03 L6.564,46.889 L2,46.889 L2,2 Z" id="Fill-1" fill="#FFFFFF"></path>
                <path d="M81.563,21.973 L89.49,21.973 C93.166,21.973 95.998,21.307 97.985,19.976 C99.971,18.643 100.963,16.647 100.963,13.984 C100.963,12.504 100.689,11.257 100.14,10.243 C99.59,9.23 98.831,8.405 97.858,7.771 C96.884,7.137 95.703,6.673 94.307,6.375 C92.913,6.081 91.369,5.933 89.679,5.933 L81.563,5.933 L81.563,21.973 Z M81.563,46.889 L77,46.889 L77,2 L90.187,2 C92.383,2 94.423,2.214 96.303,2.636 C98.184,3.058 99.812,3.744 101.186,4.696 C102.559,5.648 103.626,6.882 104.389,8.405 C105.149,9.927 105.53,11.787 105.53,13.984 C105.53,15.632 105.233,17.134 104.641,18.485 C104.048,19.84 103.248,21.011 102.233,22.004 C101.218,22.998 100.014,23.791 98.619,24.382 C97.225,24.974 95.703,25.355 94.054,25.523 L107.178,46.889 L101.599,46.889 L89.172,25.904 L81.563,25.904 L81.563,46.889 Z" id="Fill-3" fill="#FFFFFF"></path>
                <path d="M193.974,24.618 C193.974,22.002 193.55,19.512 192.704,17.148 C191.859,14.786 190.634,12.708 189.029,10.915 C187.42,9.122 185.466,7.696 183.164,6.642 C180.86,5.586 178.27,5.059 175.397,5.059 C172.522,5.059 169.934,5.586 167.629,6.642 C165.325,7.696 163.37,9.122 161.765,10.915 C160.16,12.708 158.933,14.786 158.089,17.148 C157.242,19.512 156.82,22.002 156.82,24.618 C156.82,27.234 157.242,29.724 158.089,32.088 C158.933,34.451 160.16,36.517 161.765,38.29 C163.37,40.063 165.325,41.477 167.629,42.531 C169.934,43.586 172.522,44.114 175.397,44.114 C178.27,44.114 180.86,43.586 183.164,42.531 C185.466,41.477 187.42,40.063 189.029,38.29 C190.634,36.517 191.859,34.451 192.704,32.088 C193.55,29.724 193.974,27.234 193.974,24.618 M198.79,24.585 C198.79,28.009 198.2,31.159 197.016,34.032 C195.832,36.907 194.196,39.39 192.103,41.481 C190.01,43.574 187.537,45.212 184.684,46.396 C181.831,47.578 178.735,48.171 175.397,48.171 C172.057,48.171 168.962,47.578 166.109,46.396 C163.254,45.212 160.783,43.574 158.69,41.481 C156.598,39.39 154.959,36.907 153.778,34.032 C152.593,31.159 152,28.009 152,24.585 C152,21.162 152.593,18.014 153.778,15.139 C154.959,12.266 156.598,9.782 158.69,7.689 C160.783,5.597 163.254,3.96 166.109,2.777 C168.962,1.593 172.057,1 175.397,1 C178.735,1 181.831,1.593 184.684,2.777 C187.537,3.96 190.01,5.597 192.103,7.689 C194.196,9.782 195.832,12.266 197.016,15.139 C198.2,18.014 198.79,21.162 198.79,24.585" id="Fill-5" fill="#FFFFFF"></path>
                <path d="M244.248,37.695 C244.584,39.472 245.377,40.962 246.624,42.166 C247.871,43.37 249.51,43.973 251.539,43.973 C253.102,43.973 254.392,43.688 255.406,43.119 C256.421,42.549 257.234,41.778 257.848,40.807 C258.459,39.837 258.883,38.728 259.114,37.483 C259.347,36.24 259.463,34.943 259.463,33.591 L259.463,2 L264.029,2 L264.029,33.956 C264.029,35.436 263.87,36.998 263.553,38.647 C263.237,40.295 262.634,41.818 261.745,43.211 C260.859,44.607 259.632,45.758 258.069,46.667 C256.505,47.576 254.497,48.03 252.046,48.03 C248.79,48.03 246.106,47.164 243.993,45.43 C241.881,43.698 240.548,41.5 240,38.836 L244.248,37.695 Z" id="Fill-7" fill="#FFFFFF"></path>
                <polygon id="Fill-9" fill="#FFFFFF" points="318.564 42.832 342.594 42.832 342.594 46.889 314 46.889 314 2 341.832 2 341.832 6.059 318.564 6.059 318.564 21.465 340.312 21.465 340.312 25.522 318.564 25.522"></polygon>
                <path d="M428.196,39.739 C427.436,40.88 426.517,41.958 425.439,42.975 C424.361,43.991 423.114,44.886 421.698,45.66 C420.282,46.433 418.719,47.044 417.008,47.496 C415.296,47.945 413.425,48.171 411.396,48.171 C408.013,48.171 404.885,47.578 402.012,46.396 C399.137,45.212 396.666,43.574 394.593,41.481 C392.523,39.39 390.906,36.907 389.744,34.031 C388.581,31.158 388,28.009 388,24.585 C388,21.162 388.592,18.014 389.777,15.139 C390.959,12.266 392.596,9.782 394.689,7.689 C396.782,5.596 399.254,3.96 402.108,2.777 C404.961,1.593 408.056,1 411.396,1 C413.045,1 414.66,1.173 416.246,1.515 C417.831,1.86 419.32,2.343 420.716,2.964 C422.11,3.588 423.38,4.335 424.52,5.207 C425.661,6.079 426.613,7.066 427.373,8.164 L423.569,10.953 C423.104,10.236 422.48,9.519 421.698,8.8 C420.916,8.08 419.997,7.447 418.941,6.897 C417.883,6.348 416.73,5.904 415.485,5.566 C414.238,5.228 412.895,5.059 411.459,5.059 C408.544,5.059 405.933,5.584 403.629,6.638 C401.324,7.693 399.37,9.114 397.764,10.905 C396.159,12.696 394.932,14.77 394.089,17.13 C393.241,19.489 392.819,21.975 392.819,24.585 C392.819,27.197 393.253,29.683 394.119,32.043 C394.985,34.403 396.221,36.477 397.827,38.268 C399.433,40.059 401.389,41.479 403.692,42.532 C405.996,43.588 408.584,44.114 411.459,44.114 C414.037,44.114 416.488,43.586 418.813,42.529 C421.137,41.473 423.082,39.782 424.646,37.457 L428.196,39.739 Z" id="Fill-11" fill="#FFFFFF"></path>
                <polygon id="Fill-13" fill="#FFFFFF" points="488.592 46.889 484.029 46.889 484.029 6.059 469 6.059 469 2 503.617 2 503.617 6.059 488.592 6.059"></polygon>
                <path d="M81.951,139.001 L80.807,138.772 L80.807,139.116 C81.112,139.345 81.493,139.459 81.951,139.459 L81.951,139.001 Z M81.151,165.986 C81.151,165.528 80.807,165.262 80.123,165.185 L80.923,166.671 L81.151,165.986 Z M79.55,144.146 C79.55,143.844 79.435,143.689 79.207,143.689 L78.292,143.918 L79.321,145.29 L79.55,144.146 Z M77.95,134.771 C78.253,135.076 78.636,135.229 79.094,135.229 C79.625,135.229 80.197,134.696 80.807,133.627 L77.95,134.771 Z M80.008,143.346 C80.539,142.432 80.883,141.671 81.037,141.059 L81.037,140.945 L80.923,140.945 L80.579,141.174 C80.045,141.631 79.665,141.86 79.435,141.86 C79.283,141.86 79.015,141.557 78.636,140.945 L78.063,140.145 C77.91,140.145 77.796,140.108 77.722,140.03 L76.921,141.402 L80.008,143.231 L80.123,143.231 L80.693,143.231 C80.997,143.231 81.151,142.966 81.151,142.432 L80.008,143.346 Z M77.148,134.427 C76.692,134.427 76.387,134.525 76.234,134.714 C76.08,134.905 76.005,135.267 76.005,135.8 L77.148,134.427 Z M75.777,108.702 C75.852,108.627 76.08,108.587 76.463,108.587 L75.89,107.33 L75.549,107.444 L75.777,108.702 Z M76.12,133.627 C76.578,133.247 76.806,132.942 76.806,132.713 C76.806,132.409 76.5,132.026 75.89,131.569 C75.89,132.255 75.852,132.713 75.777,132.942 C75.7,133.169 75.471,133.362 75.091,133.513 C74.785,133.742 74.785,134.085 75.091,134.542 L76.12,133.627 Z M76.234,152.837 L75.663,151.465 L74.747,152.265 L75.777,152.95 L76.234,152.837 Z M75.434,139.459 C75.434,139.001 75.166,138.772 74.635,138.772 L74.405,138.887 L74.177,139.116 L75.319,140.145 L75.434,139.459 Z M74.976,136.943 L74.635,136.485 L73.491,137.058 L74.177,137.629 L74.976,136.943 Z M73.262,107.33 C73.871,106.949 74.177,106.682 74.177,106.529 C74.177,106.377 73.947,106.035 73.491,105.501 L73.262,107.33 Z M72.462,144.947 C73.147,144.873 73.527,144.795 73.605,144.718 C73.68,144.644 73.605,144.415 73.376,144.033 L72.462,144.947 Z M72.233,114.076 C72.384,114.458 72.537,114.705 72.689,114.819 C72.842,114.934 73.107,115.03 73.491,115.105 C72.957,114.572 72.537,114.229 72.233,114.076 Z M72.118,139.574 C72.347,140.03 72.537,140.259 72.689,140.259 C72.918,140.259 73.262,140.03 73.719,139.574 L72.118,139.574 Z M73.033,134.542 L73.719,133.513 C73.491,133.513 73.376,133.438 73.376,133.284 L72.118,133.742 L73.033,134.542 Z M68.688,92.693 L68.23,94.637 L69.602,94.866 L68.688,92.693 Z M68.573,108.816 L68.803,108.702 L68.459,107.444 L68.117,107.9 C67.888,107.978 67.773,108.129 67.773,108.358 C67.773,108.513 67.963,108.664 68.345,108.816 C68.345,108.969 68.42,108.969 68.573,108.816 Z M67.201,89.378 C67.201,89.303 67.469,89.112 68.003,88.807 L67.659,88.578 C67.583,88.503 67.43,88.463 67.201,88.463 C67.125,88.463 67.049,88.503 66.973,88.578 C66.895,88.654 66.859,88.732 66.859,88.807 C66.859,88.96 66.895,89.074 66.973,89.149 L67.201,89.378 Z M66.63,103.441 L66.859,102.527 C66.705,102.527 66.591,102.49 66.515,102.412 L66.172,103.213 L66.63,103.441 Z M67.545,84.918 L66.745,84.691 C66.439,84.691 66.21,84.996 66.057,85.606 L67.545,84.918 Z M65.486,88.578 L65.258,89.149 C65.258,89.456 65.638,89.606 66.401,89.606 L65.486,88.578 Z M65.486,94.866 L65.601,94.637 L65.486,94.41 C65.41,94.257 65.41,94.142 65.486,94.066 C65.486,93.837 65.39,93.723 65.201,93.723 C65.009,93.723 64.952,93.877 65.028,94.181 L65.028,94.866 L65.486,94.866 Z M64.228,97.611 C64.914,97.382 65.258,97.116 65.258,96.81 L64.914,95.895 L64.228,97.611 Z M65.944,108.587 C65.41,108.358 64.801,108.244 64.114,108.244 L64.114,107.788 C63.96,107.635 63.96,107.483 64.114,107.33 C64.343,106.872 64.494,106.644 64.572,106.644 C64.723,106.644 64.99,106.835 65.372,107.215 L65.944,107.215 C66.019,107.14 66.057,106.949 66.057,106.644 L66.057,106.415 C66.057,106.035 66.247,105.653 66.63,105.272 L67.087,104.813 C67.315,105.043 67.505,105.311 67.659,105.614 L70.402,105.614 L70.175,107.215 C69.946,107.215 69.792,107.177 69.717,107.101 C69.412,106.567 69.031,106.3 68.573,106.3 L67.659,106.529 L65.944,107.215 C66.172,107.749 66.287,108.169 66.287,108.473 C66.287,109.007 65.83,109.464 64.914,109.845 L65.944,108.587 Z M63.314,84.462 C63.466,84.158 63.77,83.775 64.228,83.318 C64.609,82.938 64.686,82.557 64.458,82.175 L66.63,82.517 C65.944,81.832 65.486,81.488 65.258,81.488 C65.103,81.488 64.838,81.717 64.458,82.175 L63.429,83.089 L62.056,83.661 L63.314,84.462 Z M62.171,107.33 L61.141,106.986 C61.522,108.358 62.474,109.198 64,109.502 C63.77,108.587 63.16,107.864 62.171,107.33 Z M59.655,109.616 L60.113,109.387 L59.312,108.587 L59.084,108.816 L59.655,109.616 Z M58.97,106.071 C59.426,106.3 59.845,106.415 60.227,106.415 C60.683,106.415 61.675,105.997 63.2,105.157 L63.2,104.813 L61.941,104.243 L61.371,104.928 C60.913,105.386 60.455,105.653 59.998,105.728 L58.97,106.071 Z M59.884,104.014 L58.97,102.527 C58.891,102.605 58.854,102.832 58.854,103.213 L58.512,104.014 L59.884,104.014 Z M58.97,123.222 C59.349,123.147 59.579,123.051 59.655,122.937 C59.729,122.822 59.769,122.536 59.769,122.08 C59.769,121.547 59.959,121.204 60.342,121.049 L60.342,120.708 L59.084,120.937 L59.426,118.535 L59.084,118.191 L58.74,119.106 C58.512,119.564 58.397,119.984 58.397,120.364 L58.626,121.736 L58.97,123.222 Z M58.74,127.225 C59.121,127.225 59.349,126.881 59.426,126.196 L58.282,126.767 C58.206,126.767 58.206,126.806 58.282,126.881 L58.282,127.11 L58.74,127.225 Z M62.056,88.234 C62.208,88.083 62.551,87.892 63.085,87.663 C63.618,87.663 63.886,87.511 63.886,87.205 C63.886,87.054 63.429,86.863 62.514,86.634 C61.675,86.634 61.027,86.367 60.569,85.833 L60.569,86.52 C60.569,86.901 60.531,87.13 60.455,87.205 C60.379,87.205 60.227,87.32 59.998,87.549 C59.769,87.778 59.579,87.625 59.426,87.091 C58.891,87.091 58.512,87.205 58.282,87.434 C58.206,87.511 58.186,87.663 58.225,87.892 C58.264,88.12 58.358,88.312 58.512,88.463 C59.502,89.149 60.379,89.683 61.141,90.064 C62.131,89.532 62.436,88.921 62.056,88.234 Z M58.626,115.448 L58.397,114.532 C58.472,114.61 58.397,114.839 58.17,115.219 L57.826,115.905 C57.826,116.21 58.13,116.439 58.74,116.59 C58.74,115.905 58.701,115.524 58.626,115.448 Z M58.282,128.939 L57.14,130.312 C58.282,130.312 58.664,129.854 58.282,128.939 Z M62.399,96.009 C62.399,95.78 62.285,95.591 62.056,95.439 C61.827,95.286 61.675,95.171 61.598,95.095 C61.217,94.866 60.971,94.62 60.856,94.352 C60.742,94.086 60.683,93.686 60.683,93.151 L60.683,92.123 L60.913,92.123 C61.293,92.123 61.865,92.39 62.629,92.922 C63.466,93.533 64.074,93.837 64.458,93.837 C64.532,93.686 64.572,93.266 64.572,92.579 C64.572,91.894 64.343,91.628 63.886,91.779 C63.886,92.162 63.732,92.619 63.429,93.151 L63.085,90.979 L62.742,90.979 L61.827,90.865 C61.522,90.865 61.257,91.056 61.027,91.436 C60.722,91.208 60.342,91.094 59.884,91.094 C59.655,91.094 59.312,91.208 58.854,91.436 L59.084,90.865 L58.854,89.835 C58.778,89.761 58.683,89.703 58.569,89.663 C58.455,89.627 58.358,89.647 58.282,89.721 C58.055,89.95 57.94,90.255 57.94,90.636 C57.94,91.019 57.901,91.246 57.826,91.321 C57.52,91.55 57.368,91.742 57.368,91.894 C57.368,91.97 57.557,92.085 57.94,92.237 C58.244,92.465 58.397,92.657 58.397,92.808 C57.712,93.495 57.254,94.106 57.026,94.637 L56.911,94.981 C56.911,95.286 57.216,95.553 57.826,95.78 C60.264,96.544 61.713,96.963 62.171,97.039 L62.399,96.009 Z M57.14,136.029 C57.216,135.954 57.368,135.61 57.597,135 C57.597,134.925 57.557,134.885 57.482,134.885 L57.254,134.771 L56.682,135.8 L57.14,136.029 Z M62.171,99.669 L59.426,99.211 C59.729,98.907 60.035,98.336 60.342,97.497 L59.198,97.497 C58.664,96.963 58.244,96.622 57.94,96.467 L57.482,96.353 C57.026,96.353 56.682,96.622 56.453,97.153 C56.224,97.687 56.148,98.182 56.224,98.64 L56.797,100.24 C56.797,100.774 57.14,101.041 57.826,101.041 C58.13,101.041 58.377,100.966 58.569,100.812 C58.759,100.66 58.815,100.432 58.74,100.126 L56.797,100.355 C56.872,100.279 56.911,99.936 56.911,99.325 L56.911,98.869 C56.911,98.031 57.178,97.458 57.712,97.153 L59.084,98.869 C59.388,100.012 59.615,100.66 59.769,100.812 C59.845,100.812 60.073,100.623 60.455,100.24 C60.837,99.859 61.179,99.859 61.485,100.24 L60.913,101.612 C60.913,101.766 61.027,101.898 61.257,102.012 C61.485,102.127 61.713,102.185 61.941,102.185 C62.095,102.185 62.208,102.223 62.285,102.298 C62.208,102.07 62.171,101.194 62.171,99.669 Z M55.997,102.07 C56.3,102.298 56.568,102.412 56.797,102.412 C57.026,102.412 57.178,102.185 57.254,101.727 L55.997,102.07 Z M55.997,128.825 L55.883,129.054 C55.883,129.208 55.843,129.322 55.768,129.397 L55.539,129.968 C55.539,130.273 55.805,130.58 56.339,130.882 L55.997,128.825 Z M55.768,139.116 C55.31,139.421 55.081,139.687 55.081,139.916 C55.081,140.07 55.195,140.221 55.425,140.374 L55.768,140.945 C55.919,141.099 56.148,141.174 56.453,141.174 L56.682,141.288 L55.768,139.116 Z M55.31,115.561 C55.843,115.41 56.205,115.201 56.397,114.934 C56.587,114.667 56.797,114.19 57.026,113.503 C57.254,112.818 57.712,112.438 58.397,112.36 L57.597,111.789 C57.062,112.245 56.606,112.703 56.224,113.161 L55.31,112.36 C55.005,112.209 54.739,112.018 54.51,111.789 L54.51,113.276 L56.224,114.305 L55.31,115.561 Z M55.31,108.816 C55.768,108.816 55.957,108.435 55.883,107.673 L54.281,108.587 L55.31,108.816 Z M54.052,128.825 L53.824,128.482 L52.909,128.825 C52.909,128.979 52.947,129.093 53.023,129.168 L54.052,128.825 Z M57.254,118.535 C57.178,117.926 57.006,117.526 56.739,117.334 C56.472,117.144 56.072,117.011 55.539,116.934 C54.775,116.705 54.433,116.63 54.51,116.705 L54.167,114.647 C53.481,114.725 53.138,115.105 53.138,115.79 L53.252,116.363 C53.252,116.819 53.098,117.087 52.794,117.163 L54.967,117.848 L57.254,118.535 Z M54.281,132.713 L54.281,132.484 L52.681,132.141 C52.603,132.218 52.566,132.409 52.566,132.713 L54.281,132.713 Z M51.652,120.708 C52.338,120.098 53.252,119.489 54.395,118.877 L54.281,118.42 L52.338,118.649 L51.994,119.564 L51.652,120.708 Z M51.652,160.725 C51.88,160.725 52.146,160.611 52.452,160.383 L52.223,160.154 L51.994,160.04 L51.308,160.383 L51.652,160.725 Z M52.566,144.947 L51.994,144.26 C51.612,144.109 51.384,143.918 51.308,143.689 C51.308,144.3 51.346,144.68 51.423,144.833 C51.423,145.138 51.498,145.29 51.652,145.29 L52.566,144.947 Z M56.797,128.139 C56.797,127.835 56.948,127.53 57.254,127.225 C57.712,126.767 57.75,126.387 57.368,126.081 L59.884,125.738 C59.807,125.128 59.615,124.672 59.312,124.365 C58.93,124.365 58.683,124.291 58.569,124.138 C58.455,123.985 58.397,123.719 58.397,123.336 C58.397,123.032 58.092,122.88 57.482,122.88 C57.328,122.88 57.216,122.842 57.14,122.765 L56.682,124.138 C56.453,123.376 56.263,122.919 56.11,122.765 C56.034,122.69 55.843,122.651 55.539,122.651 C55.081,122.651 54.814,122.613 54.739,122.536 L57.597,119.678 C57.062,119.375 56.606,119.221 56.224,119.221 C55.843,119.221 55.425,119.335 54.967,119.564 C54.585,119.793 54.395,119.946 54.395,120.021 C54.395,120.098 54.585,120.327 54.967,120.708 C55.119,120.86 55.195,121.049 55.195,121.278 L53.937,121.507 L54.052,122.422 L53.596,122.422 C52.832,122.422 52.223,122.842 51.765,123.68 L51.08,124.709 L52.909,126.081 L52.909,123.336 C53.671,123.109 54.091,122.956 54.167,122.88 L55.883,125.738 L57.026,124.709 C57.178,125.014 57.254,125.319 57.254,125.623 C57.254,125.852 57.121,126.023 56.853,126.138 C56.587,126.252 56.339,126.31 56.11,126.31 L55.31,126.538 L54.853,125.623 C54.547,125.167 54.127,124.899 53.596,124.823 C53.824,125.892 54.471,126.425 55.539,126.425 L56.797,128.253 L56.797,128.139 Z M53.937,127.568 L50.85,126.652 L51.994,127.91 L53.937,127.568 Z M52.909,138.43 C52.983,138.506 53.138,138.544 53.367,138.544 C53.671,138.544 53.881,138.355 53.996,137.972 C54.11,137.592 54.091,137.325 53.937,137.172 L53.252,136.143 L52.452,135.457 C52.374,135.457 52.262,135.534 52.108,135.686 L53.138,137.287 L52.909,137.287 C52.527,137.287 52.298,137.249 52.223,137.172 C52.146,137.097 51.918,137.058 51.538,137.058 C51.08,137.058 50.736,137.363 50.509,137.972 L51.765,138.201 L52.909,138.43 Z M48.222,154.666 C48.297,154.742 48.525,154.78 48.907,154.78 C49.211,154.78 49.631,154.628 50.165,154.323 C50.622,154.094 51.004,153.979 51.308,153.979 C50.85,153.522 50.469,153.293 50.165,153.293 C49.86,153.293 49.516,153.484 49.137,153.866 L48.222,154.666 Z M49.478,142.088 C49.021,141.099 48.717,140.528 48.563,140.374 L48.222,140.488 L49.021,142.203 L49.478,142.088 Z M49.707,150.436 L48.563,148.834 L47.993,150.092 C48.602,150.246 49.097,150.436 49.478,150.665 L49.707,150.436 Z M49.365,158.553 L49.365,157.867 C49.287,158.096 49.097,158.363 48.793,158.668 C48.336,159.126 48.067,159.467 47.993,159.696 C47.915,159.925 47.993,160.23 48.222,160.611 C48.982,160.154 49.365,159.467 49.365,158.553 Z M47.879,143.346 C47.953,143.271 48.067,143.231 48.222,143.231 L48.107,142.775 C48.107,142.166 47.915,142.051 47.535,142.432 L47.879,143.346 Z M47.879,171.587 L47.535,170.102 L47.305,170.102 L46.849,171.702 L47.879,171.587 Z M47.763,163.355 C47.382,163.205 47.267,162.898 47.421,162.441 C47.573,161.983 47.535,161.717 47.305,161.641 C46.925,162.098 46.695,162.461 46.62,162.727 C46.544,162.995 46.62,163.317 46.849,163.699 C46.849,163.775 47.039,163.813 47.421,163.813 L47.763,163.355 Z M50.394,151.694 C50.012,151.312 49.593,151.121 49.137,151.121 L47.649,151.35 C47.573,150.588 47.115,150.132 46.277,149.978 L45.592,149.749 L45.706,149.978 C45.706,150.132 45.743,150.246 45.82,150.321 C45.895,150.703 46.239,150.97 46.849,151.121 L47.649,151.35 L47.879,151.579 L48.107,151.921 L50.394,151.694 Z M46.391,147.576 C46.544,147.12 46.735,146.891 46.964,146.891 C47.267,146.891 47.459,146.93 47.535,147.005 L47.763,147.12 L47.763,146.662 C47.763,145.748 47.305,145.253 46.391,145.175 L46.62,145.862 C46.62,146.167 46.351,146.473 45.82,146.776 C45.437,147.005 45.134,147.234 44.906,147.462 L46.391,147.576 Z M44.677,153.979 C44.906,154.513 45.172,154.78 45.476,154.78 L46.506,154.208 L44.677,153.979 Z M45.82,167.243 L45.82,165.185 C45.362,165.719 44.906,166.406 44.448,167.243 L45.82,167.243 Z M45.134,171.474 C44.906,170.865 44.752,170.522 44.677,170.445 C44.599,170.522 44.486,170.559 44.334,170.559 L44.562,171.702 L45.134,171.474 Z M44.104,152.95 L44.792,152.95 C45.476,152.95 46.05,152.685 46.506,152.15 L44.792,152.379 C44.18,152.379 43.8,152.418 43.648,152.494 L43.648,152.95 L44.104,152.95 Z M43.763,168.272 L42.275,166.442 L42.161,166.9 C42.161,167.282 42.35,167.586 42.733,167.815 L43.419,168.501 L43.763,168.272 Z M45.82,158.897 L44.906,158.668 C45.286,157.753 46.124,157.295 47.421,157.295 L47.193,156.38 L46.849,155.581 C46.01,156.953 44.408,157.678 42.047,157.753 L41.59,159.582 C42.122,158.821 42.923,158.438 43.99,158.438 C44.677,158.438 45.057,158.478 45.134,158.553 C45.057,158.631 44.942,159.202 44.792,160.269 L45.82,158.897 Z M42.161,161.183 L41.247,160.611 C41.093,160.611 40.903,160.725 40.674,160.954 L40.103,161.527 L42.161,161.183 Z M40.561,157.067 L40.789,156.838 L40.218,155.924 L39.76,156.153 L40.561,157.067 Z M38.274,135.457 C37.662,135.457 37.32,135.496 37.245,135.571 C37.396,135.8 37.626,136.029 37.93,136.258 C38.006,135.876 38.12,135.61 38.274,135.457 Z M37.816,141.174 L38.502,141.517 C39.111,141.746 39.378,142.203 39.304,142.89 L39.418,143.117 L39.76,143.346 L40.789,143.575 C39.798,141.974 39.074,140.945 38.616,140.488 L37.816,141.174 L36.217,140.945 C37.282,140.184 37.969,139.65 38.274,139.345 L37.016,136.829 L35.643,137.172 C36.482,137.554 36.673,138.087 36.217,138.772 C36.062,139.23 35.987,139.65 35.987,140.03 L35.873,141.288 C35.873,142.356 36.253,143.271 37.016,144.033 L37.816,141.174 Z M35.873,152.379 L35.643,151.121 L35.301,151.121 L35.759,152.379 L35.873,152.379 Z M35.185,130.655 L35.759,129.968 L36.558,129.168 L35.185,129.283 L35.185,130.655 Z M35.301,156.724 C35.375,156.724 35.49,156.649 35.643,156.495 L34.958,155.924 L34.729,156.153 L35.301,156.724 Z M35.073,152.494 L34.386,152.036 L34.157,152.265 C34.081,152.341 34.024,152.436 33.986,152.55 C33.946,152.665 33.966,152.761 34.044,152.837 L34.271,152.95 L35.073,152.494 Z M34.044,124.709 C33.661,125.092 33.472,125.357 33.472,125.509 C33.472,125.663 33.775,126.043 34.386,126.652 L34.044,124.709 Z M41.59,154.094 C41.971,154.094 42.199,154.133 42.275,154.208 L41.705,153.064 C41.397,152.608 40.978,152.341 40.446,152.265 L40.674,151.921 L40.789,151.694 L42.847,152.036 C42.541,151.732 42.39,151.35 42.39,150.892 C42.313,150.665 42.313,150.436 42.39,150.207 L42.39,149.521 L41.817,150.321 C41.361,150.932 40.903,151.236 40.446,151.236 L38.846,150.665 L39.304,149.978 L39.532,149.292 C39.532,149.064 39.378,148.797 39.074,148.491 C38.998,148.416 39.055,148.245 39.245,147.977 C39.434,147.71 39.645,147.501 39.874,147.349 L40.674,146.776 L40.674,146.662 C40.903,147.576 41.017,148.263 41.017,148.72 C43.15,147.959 44.562,146.702 45.248,144.947 C45.02,144.947 44.866,144.795 44.792,144.489 C44.792,144.109 44.677,143.88 44.448,143.804 C44.219,143.804 44.028,143.844 43.877,143.918 C43.877,145.138 43.914,145.862 43.99,146.091 C43.38,145.709 42.923,145.367 42.619,145.062 L41.475,144.375 C41.551,144.529 41.59,144.947 41.59,145.633 L39.188,144.947 L39.418,144.489 C39.569,144.338 39.569,144.146 39.418,143.918 C39.263,143.689 39.111,143.651 38.96,143.804 L38.388,144.26 L36.558,144.604 C35.719,144.375 35.375,143.844 35.529,143.002 L35.529,142.317 C35.529,141.86 35.263,141.402 34.729,140.945 C34.5,141.174 34.271,141.459 34.044,141.803 C33.815,142.146 33.737,142.356 33.815,142.432 L34.044,143.002 C34.044,143.231 33.889,143.5 33.586,143.804 C33.28,144.109 33.128,144.375 33.128,144.604 C33.431,145.138 33.586,145.709 33.586,146.318 L34.386,147.576 L34.958,144.947 C35.109,144.795 35.681,144.68 36.673,144.604 C37.131,145.748 37.891,146.244 38.96,146.091 C38.884,147.082 38.691,147.845 38.388,148.378 L37.93,149.292 L37.702,149.634 C37.548,149.789 37.472,149.749 37.472,149.521 C37.472,149.217 37.359,148.797 37.131,148.263 C36.825,147.73 36.673,147.272 36.673,146.891 L34.157,149.178 L34.5,149.863 C34.653,150.321 34.958,150.55 35.415,150.55 L36.101,148.378 C36.787,148.683 37.206,149.254 37.359,150.092 L37.131,151.007 L37.702,151.236 C37.93,151.236 38.16,151.121 38.388,150.892 L38.846,150.55 L38.616,151.007 C38.54,151.312 38.234,151.732 37.702,152.265 C37.396,152.57 37.245,152.95 37.245,153.408 C37.472,152.95 37.721,152.665 37.987,152.55 C38.255,152.436 38.73,152.379 39.418,152.379 C40.103,152.379 40.483,152.341 40.561,152.265 C40.636,152.341 40.674,152.608 40.674,153.064 L40.674,153.522 C40.674,154.437 40.941,154.933 41.475,155.009 C41.551,154.933 41.59,154.628 41.59,154.094 Z M37.131,134.656 L37.131,134.427 L35.301,134.427 C35.529,134.047 35.643,133.742 35.643,133.513 C35.643,133.056 35.147,132.333 34.157,131.34 L33.93,132.713 L32.672,132.713 L35.529,135 L37.131,134.656 Z M33.128,143.002 C33.28,142.851 33.28,142.737 33.128,142.661 L33.128,142.203 C33.128,141.593 33.261,141.099 33.528,140.717 C33.795,140.335 34.271,140.03 34.958,139.801 C35.109,139.801 35.224,139.687 35.301,139.459 L35.529,139.116 C34.844,138.887 34.347,138.772 34.044,138.772 C33.661,138.772 33.242,139.192 32.786,140.03 C32.48,140.335 32.174,140.488 31.87,140.488 C31.564,140.488 31.26,140.374 30.956,140.145 L30.956,140.374 C30.956,141.059 31.45,141.442 32.442,141.517 L31.87,141.86 L31.414,142.203 L32.9,143.46 L33.128,143.002 Z M33.185,127.568 C33.146,127.416 33.09,127.301 33.013,127.225 L32.786,127.11 C32.708,127.11 32.517,126.958 32.214,126.652 C31.984,126.652 31.87,126.577 31.87,126.425 C31.87,126.348 31.984,126.196 32.214,125.967 C32.288,125.815 32.138,125.663 31.757,125.509 C31.222,125.586 30.956,125.815 30.956,126.196 C30.956,126.652 31.07,126.881 31.299,126.881 L32.214,126.652 C32.138,126.73 32.098,126.921 32.098,127.225 C32.098,127.454 32.442,127.681 33.128,127.91 C33.203,127.835 33.222,127.721 33.185,127.568 Z M32.556,120.822 C32.861,120.822 33.166,120.669 33.472,120.364 L30.956,120.593 L32.556,120.822 Z M31.984,139.459 L31.984,137.972 L34.5,137.401 C34.271,137.172 34.044,137.02 33.815,136.943 L33.586,136.829 C33.431,136.829 33.317,136.792 33.242,136.714 C32.786,136.334 32.556,135.991 32.556,135.686 C32.556,135.457 32.672,135.305 32.9,135.229 C33.128,135.229 33.431,135.342 33.815,135.571 L34.271,136.029 C34.5,136.258 34.729,136.334 34.958,136.258 C35.109,136.258 35.185,136.22 35.185,136.143 L34.729,135.457 L33.815,135.571 L34.044,135 C34.044,134.542 33.7,134.162 33.013,133.856 C32.403,134.467 31.87,135.114 31.414,135.8 L31.184,135.571 L31.642,134.085 C31.414,133.627 31.07,133.398 30.613,133.398 C30.155,133.398 29.659,133.552 29.127,133.856 L29.47,133.856 C30.002,133.856 30.365,133.971 30.555,134.198 C30.745,134.427 30.764,134.696 30.613,135 C30.306,135.534 30.155,136.029 30.155,136.485 C30.155,136.868 30.345,137.554 30.728,138.544 C30.803,138.621 30.841,138.926 30.841,139.459 L31.984,139.459 Z M27.298,88.005 L27.412,88.005 L26.496,86.863 L26.04,87.205 L27.068,88.12 L27.298,88.005 Z M24.438,92.123 C24.513,92.048 24.628,92.008 24.782,92.008 L25.011,91.894 C25.24,91.894 25.352,91.742 25.352,91.436 C25.125,91.132 24.896,90.979 24.667,90.979 C24.438,90.979 24.153,91.094 23.809,91.321 C23.468,91.55 23.295,91.779 23.295,92.008 L23.867,93.151 C23.867,92.543 24.056,92.199 24.438,92.123 Z M23.18,89.149 L24.553,89.492 C24.782,89.492 24.913,89.321 24.953,88.978 C24.991,88.634 24.972,88.312 24.896,88.005 L23.18,89.149 Z M23.067,94.637 L22.723,93.495 L22.381,93.608 C22.609,94.371 22.684,94.715 22.609,94.637 L23.067,94.637 Z M22.151,87.205 L22.037,87.205 L21.809,87.434 C21.809,88.12 22.226,88.349 23.067,88.12 L22.151,87.205 Z M22.381,95.78 L21.924,95.439 C21.847,95.439 21.809,95.478 21.809,95.553 L21.695,95.668 C21.695,95.744 21.809,95.895 22.037,96.124 C22.037,95.973 22.151,95.858 22.381,95.78 Z M19.979,82.517 L20.208,82.517 L20.208,81.26 L19.979,81.26 L19.979,82.517 Z M21.122,88.234 L20.666,87.892 L19.864,88.692 L19.979,88.921 L21.122,88.234 Z M19.752,97.497 L18.721,96.696 L18.379,98.64 L19.752,97.497 Z M19.294,95.78 L19.294,95.439 C18.608,95.439 18.188,95.4 18.036,95.324 L18.036,95.78 L19.294,95.78 Z M18.264,92.465 L18.036,92.123 L17.692,91.779 L16.777,92.808 L18.264,92.465 Z M17.806,80.803 L17.806,80.574 L16.777,80.459 L16.777,80.803 L17.806,80.803 Z M17.806,100.012 C17.806,99.709 17.616,99.48 17.235,99.325 L16.549,99.096 C16.549,99.48 16.701,99.783 17.007,100.012 L17.578,100.698 L17.806,100.012 Z M16.549,149.749 L16.321,149.292 L15.863,148.834 L16.549,148.263 C16.014,147.73 15.749,147.311 15.749,147.005 C15.749,146.547 16.053,146.129 16.663,145.748 C15.367,145.901 14.72,146.433 14.72,147.349 C14.949,148.568 15.443,149.445 16.207,149.978 L16.549,149.749 Z M14.605,153.293 C14.605,153.979 14.68,154.38 14.834,154.495 C14.985,154.608 15.519,154.666 16.435,154.666 L14.605,153.293 Z M16.207,136.714 L14.949,136.829 L14.376,135.571 L14.263,136.485 C14.263,136.714 14.376,136.905 14.605,137.058 L15.178,137.172 L16.207,137.058 L16.207,136.714 Z M14.949,151.121 C14.949,150.741 14.909,150.475 14.834,150.321 L14.491,149.521 C14.263,149.749 14.148,149.941 14.148,150.092 C14.148,150.55 14.3,151.197 14.605,152.036 C14.834,151.655 14.949,151.35 14.949,151.121 Z M15.634,94.637 L14.148,94.41 C14.451,94.791 14.663,95.02 14.777,95.095 C14.89,95.171 15.138,95.171 15.519,95.095 L15.634,94.637 Z M14.376,109.158 L15.405,108.587 C14.338,108.587 13.728,108.627 13.576,108.702 C13.88,109.007 14.148,109.158 14.376,109.158 Z M14.376,144.146 L13.347,143.804 C13.271,143.88 13.232,143.995 13.232,144.146 C13.156,144.071 13.5,144.146 14.263,144.375 L14.376,144.146 Z M13.12,90.521 C13.271,90.75 13.765,90.941 14.605,91.094 C15.443,91.321 15.938,91.513 16.092,91.665 C15.329,91.056 14.338,90.675 13.12,90.521 Z M14.263,98.64 L14.605,97.953 C13.842,98.182 13.194,98.45 12.662,98.754 C13.651,98.754 14.185,98.716 14.263,98.64 Z M12.776,135.457 L13.69,134.885 L13.232,134.427 L12.432,135 L12.776,135.457 Z M13.005,90.064 C13.005,90.064 12.851,90.026 12.548,89.95 L12.318,89.721 L12.432,89.492 C12.204,89.341 12.09,89.227 12.09,89.149 C12.09,88.846 12.128,88.654 12.204,88.578 C12.279,88.503 12.242,88.388 12.09,88.234 C11.784,88.54 11.633,88.96 11.633,89.492 C11.633,89.875 12.051,90.141 12.89,90.292 C12.966,90.141 13.005,90.064 13.005,90.064 Z M12.318,171.474 L12.09,171.36 L11.747,171.816 L11.404,172.389 L12.09,172.503 L12.318,171.474 Z M12.204,147.805 L12.776,147.92 C12.928,147.92 13.156,147.576 13.462,146.891 C13.156,147.196 12.851,147.349 12.548,147.349 C12.242,147.349 11.898,147.159 11.518,146.776 L10.947,146.206 L10.719,147.92 L12.204,147.805 Z M11.175,151.35 L10.603,151.35 L10.489,151.694 L11.289,152.036 C11.594,152.265 11.976,152.456 12.432,152.608 C12.432,151.77 12.013,151.35 11.175,151.35 Z M12.09,92.465 L10.489,92.465 L11.633,94.295 C11.936,93.608 12.09,92.999 12.09,92.465 Z M12.432,142.546 C13.042,142.546 13.614,142.28 14.148,141.746 C13.995,141.671 13.651,141.631 13.12,141.631 C12.736,141.631 12.548,141.593 12.548,141.517 C12.548,140.984 12.356,140.793 11.976,140.945 C11.518,141.022 11.25,141.022 11.175,140.945 L10.145,139.687 L9.917,140.488 C9.917,140.793 10.221,141.137 10.833,141.517 L11.976,142.317 L12.432,142.546 Z M9.917,99.783 C10.679,100.088 11.06,99.936 11.06,99.325 L11.289,97.611 L9.689,98.754 L10.603,99.325 L9.917,99.783 Z M10.603,135.457 C10.603,135.076 10.261,134.885 9.575,134.885 L10.603,136.029 L10.603,135.457 Z M11.175,91.894 L9.917,89.835 L9.689,91.321 C9.689,91.933 9.649,92.314 9.575,92.465 L11.175,91.894 Z M10.947,145.233 C11.022,145.043 11.098,144.873 11.175,144.718 L9.689,144.26 L10.375,143.804 C9.611,143.575 9.192,143.424 9.117,143.346 L9.003,143.918 C9.003,144.604 9.575,145.253 10.719,145.862 C10.793,145.633 10.87,145.424 10.947,145.233 Z M9.689,165.643 C9.461,165.414 9.231,165.299 9.003,165.299 L8.775,165.643 C8.849,165.872 9.041,166.063 9.346,166.213 L9.689,165.643 Z M9.917,147.805 C9.917,147.654 9.841,147.576 9.689,147.576 L8.775,147.92 L8.775,148.034 L9.917,147.805 Z M8.888,87.091 C9.346,87.091 9.611,87.054 9.689,86.977 L9.689,86.634 L8.546,86.749 L8.775,86.977 L8.888,87.091 Z M9.575,149.978 C9.575,149.674 9.497,149.483 9.346,149.407 C9.192,149.332 8.888,149.292 8.431,149.292 C8.811,149.674 9.155,150.246 9.461,151.007 C9.535,150.855 9.575,150.512 9.575,149.978 Z M8.431,105.272 C8.66,105.957 8.926,106.3 9.231,106.3 C9.384,106.3 9.726,106.035 10.261,105.501 L8.431,105.272 Z M8.088,108.015 L9.346,107.788 L9.346,107.444 L8.088,107.788 L8.088,108.015 Z M9.003,160.04 C8.775,159.736 8.391,159.622 7.859,159.696 C8.012,160.765 8.507,161.108 9.346,160.725 L9.003,160.04 Z M15.692,140.203 C15.806,139.707 16.014,139.041 16.321,138.201 L15.634,138.658 C15.329,138.964 14.985,139.116 14.605,139.116 C14.223,139.116 13.92,139.001 13.69,138.772 C13.462,138.544 13.309,138.277 13.232,137.972 L12.776,137.287 L10.833,136.714 L10.261,137.401 L7.973,136.143 C7.821,136.449 7.632,136.714 7.402,136.943 C7.706,136.943 8.202,137.058 8.888,137.287 C9.269,137.897 9.689,138.201 10.145,138.201 C10.526,138.201 10.793,138.163 10.947,138.087 C11.022,138.012 11.25,137.972 11.633,137.972 C11.784,138.43 12.033,138.755 12.376,138.945 C12.719,139.135 13.194,139.27 13.805,139.345 L14.949,139.687 C15.023,139.765 15.063,139.916 15.063,140.145 C15.063,140.528 15.023,140.755 14.949,140.83 C14.872,140.908 14.834,141.137 14.834,141.517 C14.834,141.898 15.063,142.28 15.519,142.661 C15.519,141.517 15.578,140.699 15.692,140.203 Z M7.516,131.684 C7.363,131.836 7.288,132.026 7.288,132.255 C7.288,132.484 7.554,132.713 8.088,132.942 C7.859,132.104 7.668,131.684 7.516,131.684 Z M8.202,168.386 L8.431,168.386 L8.431,168.158 L7.288,167.815 L7.174,168.044 L7.402,168.272 C7.477,168.349 7.592,168.386 7.744,168.386 C7.897,168.54 8.049,168.54 8.202,168.386 Z M7.973,99.325 L7.744,99.211 C7.439,99.669 7.248,100.05 7.174,100.355 C7.477,100.355 7.668,100.394 7.744,100.469 L7.973,99.325 Z M7.516,98.067 C8.583,97.611 9.689,97.192 10.833,96.81 L10.375,95.439 L9.575,96.696 C9.117,96.467 8.66,96.353 8.202,96.353 C8.049,96.278 7.783,96.238 7.402,96.238 C7.325,96.315 7.134,96.353 6.83,96.353 L7.516,98.067 Z M8.546,146.091 L7.744,145.062 C7.439,144.68 7.212,144.338 7.059,144.033 L6.716,144.375 C7.097,145.443 7.248,146.091 7.174,146.318 L8.546,146.091 Z M6.374,158.668 C6.83,158.516 7.077,158.382 7.117,158.268 C7.153,158.153 7.059,157.944 6.83,157.638 L6.374,158.668 Z M6.144,138.43 L6.488,137.858 C6.639,137.478 6.601,137.212 6.374,137.058 L6.144,136.829 L6.144,138.43 Z M5.801,149.064 C6.259,149.064 6.488,148.834 6.488,148.378 C6.181,148.605 5.916,148.72 5.686,148.72 L5.23,148.949 C5.305,149.025 5.496,149.064 5.801,149.064 Z M6.488,133.971 C6.488,133.667 6.068,133.513 5.23,133.513 C5.382,133.667 5.554,133.838 5.744,134.027 C5.933,134.218 6.068,134.427 6.144,134.656 L6.488,133.971 Z M6.144,99.096 C6.068,98.945 5.762,98.794 5.23,98.64 C5.305,99.022 5.686,99.554 6.374,100.24 C6.296,99.63 6.22,99.251 6.144,99.096 Z M6.03,90.407 C5.801,90.407 5.534,90.521 5.23,90.75 C5.305,90.827 5.476,90.941 5.744,91.094 C6.011,91.246 6.259,91.284 6.488,91.208 C6.639,91.208 6.83,91.094 7.059,90.865 C6.524,90.561 6.181,90.407 6.03,90.407 Z M6.374,90.179 L6.944,88.234 L5.115,88.807 L6.374,90.179 Z M6.374,97.382 L5.801,97.039 L4.887,96.696 C4.962,97.231 5.076,97.553 5.23,97.668 C5.382,97.782 5.686,97.764 6.144,97.611 L6.374,97.382 Z M5.686,95.78 L6.374,95.553 L8.317,95.21 L10.031,94.981 L9.003,93.495 C8.775,93.266 8.507,93.191 8.202,93.266 L8.431,94.41 C7.821,94.335 7.439,94.2 7.288,94.009 C7.134,93.82 7.059,93.457 7.059,92.922 C7.059,92.39 7.019,92.085 6.944,92.008 C6.259,92.314 5.916,92.999 5.916,94.066 L5.686,94.295 L5.459,94.41 L6.374,95.553 C6.296,95.478 6.068,95.439 5.686,95.439 C5.152,95.439 4.847,95.706 4.772,96.238 L5.686,95.78 Z M35.185,174.676 C34.805,173.074 34.5,171.894 34.271,171.131 L33.242,167.815 L21.008,108.015 L19.979,108.129 L19.864,108.244 L19.864,117.962 L20.322,168.501 L20.322,171.931 C20.322,173.303 20.208,174.257 19.979,174.79 C19.902,175.096 19.637,175.476 19.179,175.934 C18.644,176.466 17.882,176.733 16.892,176.733 L4.887,176.733 C3.895,176.733 3,176.372 2.2,175.647 C1.399,174.923 1,174.103 1,173.189 L1,163.927 L1.113,157.753 C1.189,156.764 1.227,153.408 1.227,147.691 L1.113,133.742 L1.113,129.397 L1.113,120.822 L1.113,116.934 L1.113,109.273 L1.227,93.266 C1.227,89.99 1.189,88.083 1.113,87.549 L1.571,83.318 C1.645,80.651 2.274,78.841 3.458,77.887 C4.638,76.934 6.296,76.458 8.431,76.458 C10.031,76.458 10.947,76.419 11.175,76.343 L20.666,76.229 C21.655,76.229 22.933,76.343 24.496,76.572 C26.056,76.801 27.105,77.029 27.639,77.258 C28.935,77.87 29.831,78.555 30.327,79.315 C30.823,80.079 31.414,81.717 32.098,84.233 C32.786,86.749 33.357,89.263 33.815,91.779 C34.044,92.465 34.233,93.248 34.386,94.123 C34.539,95.001 34.615,95.591 34.615,95.895 L35.873,102.07 L36.217,103.785 L36.558,105.614 C38.006,113.695 39.378,120.937 40.674,127.339 L41.247,130.541 L42.733,137.514 C42.961,138.355 43.15,138.85 43.305,139.001 L44.448,138.887 L46.506,128.253 C46.658,127.187 47.153,124.749 47.993,120.937 L48.679,117.163 L49.365,113.503 L51.308,101.841 C52.681,96.049 53.517,92.162 53.824,90.179 L55.31,83.089 C55.385,82.329 55.899,81.375 56.853,80.231 C57.806,79.088 58.97,78.097 60.342,77.258 C61.865,76.419 63.429,76 65.028,76 L66.515,76.114 L67.773,76 L69.946,76 L73.719,76.114 L80.008,76.458 C84.199,76.458 86.296,78.287 86.296,81.946 L86.181,84.233 L86.411,89.378 L86.411,104.357 L86.411,117.506 L86.411,131.798 L86.411,145.062 L86.411,159.355 C86.411,167.511 86.371,172.314 86.296,173.76 C86.296,174.601 85.991,175.305 85.382,175.876 C84.771,176.448 83.97,176.733 82.98,176.733 L70.974,176.848 C69.755,176.848 68.803,176.504 68.117,175.819 C67.43,175.132 67.087,174.181 67.087,172.96 L67.201,156.838 L67.087,136.829 C67.087,134.009 67.125,132.255 67.201,131.569 L67.315,119.106 C67.315,110.341 66.895,106.491 66.057,107.559 L53.937,169.758 C53.098,174.486 50.926,176.848 47.421,176.848 C45.134,176.848 43.722,176.885 43.19,176.962 C42.656,177.038 41.855,177.076 40.789,177.076 C37.434,177.076 35.567,176.276 35.185,174.676 Z" id="Fill-15" fill="#FFFFFF"></path>
                <path d="M213.425,84.719 C213.311,84.53 213.176,84.432 213.026,84.432 C212.642,84.432 212.184,84.586 211.653,84.89 C212.338,84.89 212.986,85.044 213.596,85.348 C213.596,85.119 213.539,84.91 213.425,84.719 Z M211.195,83.289 C211.653,82.603 212.184,82.26 212.796,82.26 C213.176,82.26 213.52,82.374 213.825,82.603 C213.214,81.614 212.757,81.156 212.452,81.231 L211.994,81.345 C211.69,81.345 211.27,81.194 210.738,80.889 L210.966,82.032 L211.195,83.289 Z M207.879,104.213 L208.222,104.213 L208.222,103.184 L207.879,103.184 L207.879,104.213 Z M209.137,89.464 C208.983,88.855 208.907,88.474 208.907,88.321 L209.709,88.092 C210.166,88.016 210.451,87.921 210.566,87.806 C210.68,87.692 210.738,87.446 210.738,87.063 C210.66,86.834 210.395,86.568 209.937,86.262 C209.403,86.033 209.137,85.768 209.137,85.463 C209.67,85.158 209.937,84.89 209.937,84.661 C209.937,84.51 209.67,84.166 209.137,83.632 L207.308,84.776 L207.308,84.89 C206.696,84.281 206.239,84.281 205.936,84.89 C206.01,85.425 206.394,85.883 207.079,86.262 C207.23,86.339 207.726,86.644 208.566,87.177 L208.566,89.006 L208.793,89.235 L209.137,89.464 Z M206.164,102.842 C205.936,102.613 205.821,102.46 205.821,102.384 L205.25,103.299 C205.324,103.299 205.44,103.376 205.592,103.528 L206.164,102.842 Z M206.793,87.748 C206.679,87.368 206.659,87.177 206.736,87.177 C206.279,88.016 205.781,88.702 205.25,89.235 C205.781,89.464 206.468,89.578 207.308,89.578 C207.079,88.74 206.907,88.131 206.793,87.748 Z M204.448,94.038 L204.678,93.58 L204.906,93.237 C204.83,93.237 204.792,93.199 204.792,93.123 L204.563,93.123 L204.334,93.465 L203.992,93.923 L204.448,94.038 Z M204.221,110.732 C204.448,110.274 204.563,109.93 204.563,109.701 C204.563,109.244 204.334,108.864 203.877,108.559 C203.952,108.635 203.992,108.901 203.992,109.359 L204.221,110.732 Z M203.763,106.843 L203.992,106.614 C203.914,106.539 203.763,106.5 203.534,106.5 L203.077,106.614 C203.305,106.843 203.494,106.958 203.649,106.958 L203.763,106.843 Z M204.792,100.212 C204.258,99.678 203.992,99.297 203.992,99.068 C203.992,98.764 204.258,98.459 204.792,98.154 C204.487,98.002 204.258,97.85 204.107,97.696 L203.305,97.354 C202.849,97.888 202.543,98.383 202.391,98.839 C202.695,99.068 202.849,99.259 202.849,99.411 C202.849,99.488 202.734,99.602 202.505,99.755 C202.199,99.831 202.123,99.983 202.277,100.212 L204.792,100.212 Z M201.133,103.871 L201.018,105.014 C201.018,105.471 201.322,105.776 201.934,105.929 L201.133,103.871 Z M201.247,107.987 C201.247,107.454 201.207,107.149 201.133,107.072 L200.447,108.33 C200.142,108.864 200.028,109.435 200.104,110.045 C200.865,109.512 201.247,108.826 201.247,107.987 Z M201.476,97.81 C200.407,97.964 199.876,98.497 199.876,99.411 C199.876,99.717 200.066,100.175 200.447,100.784 L201.476,97.81 Z M200.104,119.763 C200.562,119.536 200.79,119.192 200.79,118.734 C200.942,118.734 201.322,118.812 201.934,118.963 C201.934,118.354 202.049,117.783 202.277,117.249 L201.934,117.249 L201.018,118.734 C200.486,118.963 199.989,119.078 199.532,119.078 C199.074,119.154 198.846,119.268 198.846,119.421 L199.19,120.336 C199.418,120.107 199.722,119.917 200.104,119.763 Z M199.532,103.528 C199.532,103.376 199.418,103.184 199.19,102.956 C199.19,103.184 199.035,103.299 198.733,103.299 C199.035,103.604 199.19,103.871 199.19,104.1 L199.532,103.528 Z M199.418,116.906 L201.133,116.677 C200.447,116.22 199.722,115.991 198.96,115.991 C198.504,115.991 198.084,116.105 197.702,116.333 C197.55,116.487 197.475,116.677 197.475,116.906 C197.475,117.059 197.435,117.174 197.361,117.249 L199.418,116.906 Z M197.017,170.073 C196.788,169.465 196.673,169.007 196.673,168.701 L196.217,168.701 C196.217,169.007 196.292,169.465 196.446,170.073 L197.017,170.073 Z M197.017,129.369 C196.863,129.75 196.673,129.979 196.446,130.054 C196.217,130.283 196.026,130.551 195.873,130.854 L196.788,131.083 L197.589,131.427 L197.017,129.369 Z M195.988,172.588 C196.292,172.588 196.483,172.473 196.561,172.246 C196.635,172.017 196.597,171.713 196.446,171.33 C196.139,171.865 195.719,172.284 195.188,172.588 L195.988,172.588 Z M196.217,151.207 C196.521,151.207 196.711,150.978 196.788,150.52 C196.561,150.293 196.368,150.178 196.217,150.178 C195.911,150.178 195.529,150.406 195.073,150.864 C195.529,151.093 195.911,151.207 196.217,151.207 Z M197.245,127.538 C197.169,127.007 196.826,126.739 196.217,126.739 L197.131,125.252 L197.017,123.993 L196.673,122.623 L198.275,122.279 L199.418,122.165 C199.418,122.548 199.608,122.09 199.989,120.792 L199.876,120.792 C199.418,120.792 199.112,121.021 198.96,121.479 C198.884,121.708 198.694,121.975 198.389,122.279 L197.361,121.364 L195.073,121.364 C195.073,122.204 195.033,122.737 194.959,122.965 C194.883,123.194 194.844,123.766 194.844,124.68 L195.759,124.68 L195.759,123.537 L197.017,123.993 C196.483,124.909 196.177,125.709 196.103,126.395 L196.446,126.739 L196.446,127.309 C196.446,127.767 196.749,128.073 197.361,128.225 C197.282,128.151 197.245,127.922 197.245,127.538 Z M195.188,138.973 C194.883,139.278 194.73,139.544 194.73,139.773 L194.844,140.687 L195.073,140.802 C195.073,140.88 195.111,140.916 195.188,140.916 L195.188,138.973 Z M195.988,111.988 C196.063,111.913 195.988,111.646 195.759,111.188 C195.453,111.264 195.111,111.571 194.73,112.103 C195.491,112.103 195.911,112.066 195.988,111.988 Z M194.844,146.061 C194.997,145.605 195.073,145.224 195.073,144.918 L194.73,144.918 C194.73,145.224 194.654,145.605 194.501,146.061 L194.844,146.061 Z M193.93,115.076 C193.93,114.924 194.044,114.847 194.274,114.847 L194.044,114.048 C194.044,113.743 193.816,113.59 193.358,113.59 L193.93,115.076 Z M197.361,120.221 C196.903,119.841 196.673,119.459 196.673,119.078 C196.673,118.774 196.788,118.163 197.017,117.249 L195.188,117.249 C195.111,117.096 195.073,116.677 195.073,115.991 C195.607,116.525 195.873,116.448 195.873,115.762 L195.873,114.504 C196.026,114.658 196.521,114.773 197.361,114.847 C197.361,114.389 197.435,113.629 197.589,112.56 C197.97,113.246 198.313,113.819 198.618,114.275 C198.846,113.819 199.112,113.59 199.418,113.59 C199.648,113.59 199.857,113.609 200.047,113.646 C200.237,113.686 200.332,113.819 200.332,114.048 L200.104,115.076 C200.637,115.076 200.98,115.114 201.133,115.189 C201.207,115.267 201.476,115.304 201.934,115.304 L201.934,116.677 L202.277,116.677 L202.391,115.304 L203.192,115.076 L203.992,114.847 L201.133,113.819 L201.476,113.132 L200.447,113.361 L201.018,111.646 L201.362,111.531 L202.391,113.361 C202.771,112.98 202.963,112.6 202.963,112.217 C202.963,111.988 202.734,111.646 202.277,111.188 C201.895,111.188 201.629,111.151 201.476,111.073 C201.095,111.073 200.865,111.113 200.79,111.188 L199.876,111.188 C199.342,111.188 199.018,111.093 198.904,110.903 C198.789,110.713 198.694,110.159 198.618,109.244 C198.16,109.321 197.931,109.626 197.931,110.159 L198.16,111.073 C198.313,111.531 198.35,111.799 198.275,111.874 C197.361,112.408 196.521,113.056 195.759,113.819 L195.873,114.733 C195.263,114.733 195.033,115.038 195.188,115.647 L195.188,116.22 C195.111,116.143 194.805,116.105 194.274,116.105 C194.119,116.105 193.816,116.182 193.358,116.333 C194.119,116.791 194.615,117.211 194.844,117.591 C195.607,119.04 196.217,119.917 196.673,120.221 L197.361,120.221 Z M193.816,156.123 L194.73,155.552 L195.417,155.209 L195.417,153.951 L193.244,155.323 L193.816,156.123 Z M194.159,152.237 L193.358,150.864 L192.901,151.093 L193.816,152.351 L194.159,152.237 Z M195.645,128.911 L195.417,128.111 C195.111,127.729 195.033,127.464 195.188,127.309 L195.188,126.968 C195.188,126.663 195.073,126.395 194.844,126.166 L194.274,125.595 C194.119,125.291 193.816,125.062 193.358,124.909 L192.214,124.337 C192.214,124.72 192.176,124.948 192.101,125.024 C192.024,125.1 191.987,125.252 191.987,125.481 C191.987,125.635 192.176,125.9 192.558,126.281 L193.244,126.968 L193.586,126.51 L193.93,126.166 L194.274,126.166 C194.196,126.473 194.159,127.464 194.159,129.14 C194.539,129.14 194.883,129.292 195.188,129.596 C195.491,129.369 195.645,129.14 195.645,128.911 Z M192.786,166.414 L192.786,166.3 C192.404,166.3 192.176,166.261 192.101,166.185 C192.024,166.111 191.832,166.071 191.529,166.071 L191.529,166.3 C191.908,166.529 192.252,166.643 192.558,166.643 L192.786,166.414 Z M193.93,119.649 C194.159,119.268 194.274,118.925 194.274,118.62 C194.274,118.01 193.776,117.859 192.786,118.163 C192.938,118.239 193.205,118.545 193.586,119.078 C193.205,119.078 192.482,119.154 191.414,119.307 C191.718,119.917 191.872,120.412 191.872,120.792 L193.93,119.649 Z M190.729,155.781 C190.729,155.477 190.88,155.285 191.185,155.209 C191.032,155.057 190.804,154.98 190.499,154.98 L190.499,154.865 L190.385,154.865 C190.309,154.865 190.271,154.905 190.271,154.98 L190.156,155.209 L190.729,155.781 Z M191.072,127.996 C191.147,127.996 191.185,127.958 191.185,127.882 L190.499,126.968 C190.346,127.12 190.231,127.197 190.156,127.197 L190.385,127.653 C190.46,127.958 190.651,128.111 190.957,128.111 L191.072,127.996 Z M190.499,139.316 C190.574,139.393 190.499,139.622 190.271,140.002 C189.965,140.307 190.041,140.613 190.499,140.916 L190.499,139.316 Z M190.729,156.81 C190.423,156.735 190.041,156.543 189.585,156.238 L189.241,157.954 L190.729,156.81 Z M189.814,114.962 C189.889,114.887 189.929,114.733 189.929,114.504 L189.929,114.275 L189.585,114.275 C189.431,114.962 189.317,115.343 189.241,115.418 C189.395,115.418 189.585,115.267 189.814,114.962 Z M189.585,122.623 C189.585,122.548 189.622,122.508 189.699,122.508 L189.814,122.508 C189.814,122.128 189.775,121.899 189.699,121.821 C189.622,121.746 189.585,121.555 189.585,121.25 C189.889,121.021 190.041,120.832 190.041,120.677 L189.814,119.992 C189.66,120.603 189.585,121.021 189.585,121.25 L188.9,121.25 L189.241,121.936 L189.585,122.623 Z M188.556,148.12 C188.479,148.197 188.442,148.387 188.442,148.692 C188.442,149.15 188.9,149.455 189.814,149.606 C189.202,148.997 188.785,148.502 188.556,148.12 Z M188.213,141.031 L188.213,140.116 L187.869,140.116 C187.869,140.498 187.831,140.727 187.756,140.802 C187.678,140.88 187.642,141.145 187.642,141.602 C187.642,141.679 187.717,141.794 187.869,141.946 L188.213,142.403 L188.213,141.031 Z M187.07,145.719 C187.298,145.719 187.412,145.644 187.412,145.49 C187.412,145.186 187.298,144.804 187.07,144.347 L186.726,144.347 L187.07,145.719 Z M186.384,149.949 C186.154,150.331 186.059,150.578 186.098,150.693 C186.135,150.807 186.344,150.94 186.726,151.093 C186.498,150.713 186.384,150.331 186.384,149.949 Z M187.869,126.853 C187.259,126.244 186.802,125.938 186.498,125.938 C186.344,125.938 186.078,126.244 185.696,126.853 L187.869,126.853 Z M187.298,128.111 C186.154,128.187 185.584,128.378 185.584,128.682 C185.584,128.76 185.886,128.987 186.498,129.369 L187.298,128.111 Z M176.893,98.497 L176.093,98.154 L175.978,98.383 C175.902,98.459 175.863,98.573 175.863,98.724 C175.863,98.953 176.017,99.068 176.321,99.068 C176.473,98.839 176.665,98.65 176.893,98.497 Z M175.522,96.324 L175.178,95.866 L174.949,96.667 C174.949,96.821 175.253,96.896 175.863,96.896 L175.522,96.324 Z M175.178,94.952 C175.329,94.8 175.444,94.229 175.522,93.237 C175.064,93.465 174.835,93.734 174.835,94.038 L175.178,94.952 Z M185.696,177.276 C184.325,177.201 183.277,176.743 182.553,175.904 C181.828,175.066 181.466,173.961 181.466,172.588 C181.541,172.056 181.581,170.187 181.581,166.985 L181.466,155.894 C181.466,152.389 181.505,150.331 181.581,149.72 L181.696,143.318 L181.696,140.116 C181.696,138.744 181.734,137.829 181.81,137.371 C181.81,134.248 181.655,132.227 181.352,131.312 L180.781,129.94 C178.798,124.757 177.159,120.792 175.863,118.049 C175.407,116.22 174.873,114.658 174.264,113.361 L171.977,107.758 C171.901,107.607 171.766,107.263 171.576,106.729 C171.386,106.196 171.099,105.471 170.719,104.556 L169.232,101.011 C168.012,97.81 166.792,94.723 165.574,91.751 L163.629,86.719 C162.944,85.273 162.333,83.861 161.8,82.489 C161.266,81.116 161,80.127 161,79.516 C161,78.449 161.495,77.764 162.487,77.458 C163.173,77.155 164.659,77 166.946,77 L176.321,77.115 C177.845,77.115 178.952,77.384 179.638,77.915 C180.323,78.449 180.932,79.442 181.466,80.889 L184.668,90.035 L185.696,92.78 L186.613,94.952 L187.298,97.239 L188.785,101.469 C188.86,101.775 189.585,103.718 190.957,107.301 C191.109,107.529 191.3,107.948 191.529,108.559 L192.101,108.559 L194.159,102.956 C196.446,97.087 198.426,91.636 200.104,86.605 L201.476,83.176 L202.963,79.516 C203.114,78.907 203.458,78.393 203.992,77.973 C204.524,77.554 205.172,77.344 205.936,77.344 C207.154,77.115 209.061,77 211.653,77 C216.836,77 220.037,77.229 221.257,77.687 C222.019,77.993 222.401,78.564 222.401,79.402 C222.401,80.165 221.943,81.574 221.028,83.632 C219.732,87.292 218.702,90.035 217.941,91.865 L216.341,95.752 L213.253,103.07 L211.767,106.5 C210.546,109.55 209.709,111.531 209.251,112.446 L208.907,113.475 L208.337,114.733 L207.422,117.02 C206.811,118.392 206.394,119.497 206.164,120.336 L205.478,122.279 L204.448,124.451 C203.305,126.968 202.6,128.873 202.334,130.169 C202.066,131.466 201.934,133.485 201.934,136.228 L201.934,156.238 L201.934,172.246 C201.857,174 201.609,175.18 201.191,175.789 C200.771,176.402 199.989,176.782 198.846,176.933 L196.788,177.276 L185.696,177.276 Z" id="Fill-17" fill="#FFFFFF"></path>
                <path d="M363.456,85.918 L363.113,86.604 L362.884,87.405 C362.884,87.633 363.073,87.939 363.456,88.319 L363.456,85.918 Z M362.998,83.631 C362.388,83.631 362.084,83.785 362.084,84.089 L362.656,85.118 L362.998,83.631 Z M361.97,91.521 C362.578,91.141 362.884,90.568 362.884,89.805 C362.808,89.654 362.769,89.349 362.769,88.891 C362.084,89.196 361.74,89.692 361.74,90.377 L361.97,91.521 Z M362.542,150.405 C362.388,150.33 362.008,150.368 361.398,150.52 C361.702,150.52 361.893,150.673 361.97,150.978 C362.273,151.434 362.483,151.721 362.599,151.835 C362.713,151.948 362.959,151.892 363.342,151.663 C362.959,150.902 362.693,150.483 362.542,150.405 Z M361.284,94.608 L360.94,93.35 L360.597,93.464 L360.826,94.722 L361.284,94.608 Z M361.169,127.309 C361.169,127.309 361.206,127.292 361.284,127.252 C361.358,127.214 361.435,127.004 361.513,126.623 L360.483,126.852 C360.483,126.928 360.444,126.966 360.369,126.966 C360.9,127.194 361.169,127.309 361.169,127.309 Z M360.597,91.521 C360.062,91.217 359.721,91.063 359.568,91.063 C359.263,91.063 358.997,91.368 358.768,91.978 L360.597,91.521 Z M359.568,160.582 C359.415,160.43 359.341,160.316 359.341,160.238 C359.034,160.467 358.807,160.658 358.653,160.811 C358.499,160.965 358.463,161.23 358.539,161.61 L359.568,160.582 Z M358.997,87.062 C359.072,86.987 359.186,86.947 359.341,86.947 L358.883,84.317 L358.31,84.431 L358.997,87.062 Z M358.653,165.727 C358.883,165.499 359.034,165.232 359.111,164.926 C358.577,165.232 358.157,165.537 357.853,165.841 C357.699,165.995 357.813,166.261 358.197,166.642 L358.653,165.727 Z M359.341,94.379 C359.263,94.304 359.226,94.151 359.226,93.922 L357.739,94.608 C358.119,94.837 358.425,94.991 358.653,95.066 C358.883,95.142 359.111,95.066 359.341,94.837 C359.415,94.762 359.415,94.608 359.341,94.379 Z M362.542,161.154 L362.312,161.04 C362.008,161.04 361.815,161.078 361.74,161.154 L360.94,161.267 C361.093,161.116 361.169,160.811 361.169,160.353 C361.169,159.896 361.226,159.572 361.341,159.381 C361.455,159.192 361.74,159.095 362.198,159.095 L363.113,160.696 L364.027,158.638 L361.74,158.066 L362.769,156.237 C362.159,155.779 361.778,155.418 361.626,155.151 C361.474,154.884 361.513,154.522 361.74,154.064 L362.769,154.408 C362.998,154.408 363.266,154.293 363.57,154.064 L362.769,153.264 L360.255,153.264 L360.255,154.408 L359.111,153.15 L357.968,154.75 L358.883,154.522 C359.415,154.522 360.141,154.979 361.055,155.893 L360.026,155.666 L359.683,157.151 C359.53,156.771 359.226,156.428 358.768,156.122 C358.157,155.893 357.699,155.627 357.395,155.322 L358.197,158.066 L359.797,158.409 L360.369,160.582 L359.911,161.267 L360.94,161.267 L362.428,162.411 L362.542,161.154 Z M357.853,152.578 L358.082,152.35 L357.625,151.548 L357.281,151.663 L357.853,152.578 Z M363.456,170.758 L362.656,169.729 L363.456,168.7 L362.656,167.899 L363.798,167.328 C363.187,167.099 362.884,166.795 362.884,166.413 C362.884,166.109 362.998,165.804 363.227,165.499 L362.312,164.926 C361.55,164.546 361.32,163.974 361.626,163.212 L361.626,163.098 C361.626,162.945 361.513,162.793 361.284,162.64 C361.055,162.488 360.786,162.411 360.483,162.411 L360.141,162.411 C359.377,162.411 358.539,162.64 357.625,163.098 L356.939,165.155 C357.014,165.232 357.129,165.27 357.281,165.27 C357.434,165.27 357.548,165.117 357.625,164.812 L357.853,164.355 L358.768,162.983 C359.758,162.983 360.406,163.137 360.712,163.439 C360.864,163.594 360.94,163.861 360.94,164.241 L360.94,164.583 C360.94,164.89 361.093,165.155 361.398,165.384 C362.008,165.766 362.159,166.185 361.854,166.642 C360.635,166.109 359.835,165.995 359.453,166.299 L359.226,166.984 L358.997,167.786 C359.683,167.328 360.121,167.082 360.311,167.042 C360.501,167.004 360.75,167.177 361.055,167.557 L362.198,168.357 L361.97,170.186 L360.483,169.157 C360.33,169.54 359.911,169.882 359.226,170.186 C358.539,170.644 358.119,171.178 357.968,171.787 L359.226,171.102 L359.797,171.787 L360.712,169.958 L361.284,170.644 L361.626,171.215 L359.568,172.244 C359.721,172.856 359.986,173.007 360.369,172.702 C360.444,172.626 360.597,172.587 360.826,172.587 L362.428,172.816 L363.456,170.758 Z M359.797,168.471 L357.625,168.471 L357.168,166.984 C356.785,168.282 356.596,168.74 356.596,168.357 L358.883,169.729 L359.797,168.471 Z M356.596,92.321 C356.596,92.398 356.747,92.398 357.054,92.321 L357.625,92.321 L356.596,90.721 C356.29,90.948 356.138,91.177 356.138,91.406 L356.366,91.864 L356.596,92.321 Z M356.71,89.005 L356.71,88.205 C357.014,88.51 357.548,88.662 358.31,88.662 C358.843,88.662 359.835,88.434 361.284,87.976 L360.369,87.52 C359.758,87.747 359.186,87.861 358.653,87.861 L357.168,87.747 C357.09,87.747 356.899,87.901 356.596,88.205 L355.91,89.578 C355.985,89.578 356.1,89.654 356.252,89.805 C356.556,89.73 356.71,89.463 356.71,89.005 Z M355.681,171.102 C355.91,171.102 356.061,171.064 356.138,170.987 L355.91,170.071 L355.681,170.186 L355.681,171.102 Z M354.881,121.935 C355.032,122.164 355.224,122.278 355.452,122.278 L356.138,121.935 L354.881,121.935 Z M356.138,172.358 L357.51,172.931 C357.663,172.931 357.853,172.702 358.082,172.244 C357.471,172.016 356.824,171.901 356.138,171.901 C355.376,171.901 354.918,172.092 354.767,172.473 L355.338,173.045 L356.138,172.358 Z M355.224,166.87 C354.918,166.719 354.727,166.681 354.652,166.755 L354.194,167.213 L355.224,166.87 Z M354.881,87.861 L356.366,86.262 C356.441,86.187 356.404,85.88 356.252,85.347 L354.767,85.804 L354.767,84.204 C354.384,84.356 354.194,84.546 354.194,84.774 C354.194,84.929 354.309,85.118 354.538,85.347 L354.767,85.804 C354.918,85.958 354.995,86.072 354.995,86.147 L354.767,86.604 L354.767,86.947 L354.881,87.861 Z M352.709,160.582 C353.165,161.04 353.509,161.23 353.737,161.154 L354.08,160.467 L355.108,160.011 C354.804,159.782 354.652,159.553 354.652,159.324 C354.652,159.095 354.767,158.829 354.995,158.523 C355.146,158.144 355.146,157.838 354.995,157.609 C354.08,158.678 353.774,159.667 354.08,160.582 L352.709,160.582 Z M353.737,153.15 C353.737,152.692 353.354,152.502 352.594,152.578 C352.898,152.884 353.203,153.304 353.509,153.835 L353.737,153.15 Z M353.394,171.444 L353.279,171.215 L352.479,171.215 L352.479,171.444 L353.394,171.444 Z M352.021,169.958 C352.709,169.958 353.126,169.92 353.279,169.844 L353.279,169.729 L352.021,169.729 L352.021,169.958 Z M350.649,167.213 L350.192,167.328 L350.422,168.013 C350.422,168.776 350.802,169.196 351.565,169.271 L350.649,167.213 Z M349.506,169.5 C349.2,170.035 349.05,170.491 349.05,170.873 C349.05,171.025 349.278,171.293 349.735,171.673 L349.506,169.5 Z M349.735,166.07 C349.735,165.537 349.582,164.697 349.278,163.554 L348.364,164.126 L349.506,166.185 L349.735,166.07 Z M348.364,160.696 C348.364,160.316 348.02,160.087 347.334,160.011 L347.791,160.811 L348.135,161.61 L348.364,160.696 Z M345.562,163.269 C345.676,163.232 345.694,163.174 345.619,163.098 L345.505,162.411 L345.048,162.869 C345.048,163.098 345.123,163.212 345.275,163.212 C345.351,163.288 345.448,163.308 345.562,163.269 Z M343.561,156.922 C343.712,157.305 343.865,157.476 344.018,157.437 C344.17,157.4 344.361,157.266 344.59,157.037 C344.056,157.037 343.712,157 343.561,156.922 Z M343.561,154.864 L343.332,153.95 L343.103,153.15 L342.876,153.15 L343.103,154.979 L343.561,154.864 Z M340.931,148.805 L341.732,149.147 C341.96,149.301 342.149,149.359 342.303,149.319 C342.454,149.281 342.646,149.187 342.876,149.034 L340.931,148.805 Z M336.7,137.028 L336.7,136.914 L335.786,137.256 L336.015,137.485 L336.7,137.028 Z M333.957,110.272 C334.871,109.893 335.137,109.397 334.757,108.786 L333.957,110.272 Z M334.413,128.452 L334.871,126.852 C334.413,126.852 334.128,126.737 334.014,126.508 C333.899,126.279 333.843,125.899 333.843,125.365 C334.374,125.67 334.794,125.823 335.101,125.823 C335.328,125.823 335.48,125.594 335.557,125.136 L334.643,125.022 C334.337,125.022 334.071,125.176 333.843,125.48 C333.155,125.634 332.965,125.976 333.27,126.508 L334.413,128.452 Z M332.699,108.671 C332.851,108.671 332.965,108.634 333.041,108.557 L332.813,107.528 L332.355,107.528 L332.699,108.671 Z M332.928,123.65 C332.394,124.336 332.106,124.756 332.07,124.909 C332.03,125.061 332.165,125.328 332.47,125.709 L332.928,123.65 Z M331.784,99.296 C331.707,99.373 331.67,99.602 331.67,99.981 C331.67,100.365 332.012,100.554 332.699,100.554 C332.47,100.096 332.165,99.678 331.784,99.296 Z M333.155,106.728 L333.27,106.499 C333.27,106.27 333.537,105.89 334.071,105.355 L333.957,105.128 L332.699,105.584 L332.127,104.67 L332.928,104.097 C333.23,103.946 333.459,103.795 333.613,103.641 L332.928,103.412 C332.545,103.261 332.316,103.412 332.241,103.87 C332.241,103.946 332.087,104.022 331.784,104.097 C331.173,104.251 330.83,104.555 330.756,105.013 L330.526,105.813 L332.813,105.584 C332.585,105.89 332.47,106.195 332.47,106.499 C332.47,106.728 332.659,106.918 333.041,107.071 C333.117,106.996 333.155,106.882 333.155,106.728 Z M330.184,117.59 C330.336,117.515 330.792,117.476 331.556,117.476 L331.556,117.247 C330.792,117.247 330.336,117.209 330.184,117.133 L330.184,117.59 Z M330.526,111.645 C330.526,111.112 330.563,110.807 330.641,110.729 C330.563,110.654 330.449,110.654 330.298,110.729 C330.143,110.807 330.068,110.958 330.068,111.187 L330.298,111.645 L330.526,111.645 Z M331.556,98.609 L330.641,98.153 L329.954,98.267 L329.954,98.609 L331.556,98.609 Z M331.212,108.671 L330.756,107.642 L329.612,108.9 L331.212,108.671 Z M330.298,106.613 L329.383,104.899 L329.04,105.013 L329.498,106.042 L329.84,106.842 L330.298,106.613 Z M330.412,103.984 L330.756,103.526 L330.526,103.068 C330.373,102.689 330.143,102.498 329.84,102.498 C329.764,102.574 329.648,102.612 329.498,102.612 L329.84,103.297 L328.239,103.87 L329.154,104.212 C329.383,104.441 329.648,104.595 329.954,104.67 C330.106,104.366 330.258,104.137 330.412,103.984 Z M328.239,109.129 C327.629,109.358 327.325,109.626 327.325,109.929 L327.782,111.073 L328.239,109.129 Z M327.439,85.804 L327.667,85.689 C327.742,85.689 327.782,85.652 327.782,85.575 L327.553,85.003 L327.325,85.003 L327.439,85.804 Z M327.553,111.531 L327.097,111.416 L326.981,112.445 C326.981,112.522 327.057,112.56 327.211,112.56 L327.553,111.531 Z M328.239,91.177 L326.867,91.521 C327.171,91.597 327.325,91.788 327.325,92.092 L327.211,93.008 C327.211,93.235 327.439,93.428 327.896,93.579 L328.239,91.177 Z M326.639,108.786 L326.182,108.671 L325.953,109.7 L326.411,109.814 L326.639,108.786 Z M326.753,94.037 L326.296,94.379 C325.989,94.457 325.838,94.647 325.838,94.951 L326.067,95.866 L326.753,94.037 Z M327.097,88.662 C327.097,88.205 327.247,87.825 327.553,87.52 L328.125,86.718 C328.049,86.643 327.935,86.604 327.782,86.604 C327.477,86.604 327.286,86.758 327.211,87.062 L326.867,87.52 C326.561,87.976 326.219,88.052 325.838,87.747 C326.067,88.205 326.238,88.548 326.352,88.776 C326.468,89.005 326.561,89.159 326.639,89.234 C326.713,89.31 326.981,89.425 327.439,89.578 C327.211,89.196 327.097,88.891 327.097,88.662 Z M326.411,91.75 C326.411,91.368 326.296,90.948 326.067,90.492 L325.838,91.75 C325.838,92.055 325.724,92.626 325.495,93.464 C326.104,92.855 326.411,92.284 326.411,91.75 Z M325.152,86.947 C325.304,86.796 325.838,86.567 326.753,86.262 C326.296,86.109 326.067,85.843 326.067,85.46 L326.411,84.546 C326.639,84.089 326.599,83.708 326.296,83.402 C326.143,83.785 325.953,84.031 325.724,84.146 C325.495,84.26 325.152,84.317 324.695,84.317 L323.894,84.317 C324.885,84.774 325.381,85.232 325.381,85.689 L325.152,86.947 Z M323.666,86.489 C324.046,86.109 324.237,85.88 324.237,85.804 C324.237,85.575 323.894,85.309 323.208,85.003 L323.666,86.489 Z M324.58,90.492 C325.038,89.883 325.268,89.502 325.268,89.349 C325.268,89.273 325.038,89.12 324.58,88.891 C324.655,88.739 324.695,88.167 324.695,87.176 L322.866,87.062 L323.208,87.52 L323.322,87.747 C323.322,87.901 323.36,88.016 323.436,88.09 L324.237,87.291 L324.466,88.205 C324.466,88.586 324.504,88.815 324.58,88.891 L323.78,89.919 L324.58,90.492 Z M322.866,95.751 L322.522,95.522 L322.179,96.666 C322.254,96.744 322.368,96.78 322.522,96.78 L322.866,95.751 Z M322.637,84.431 C323.397,84.431 323.78,83.86 323.78,82.717 L322.179,84.431 L322.637,84.431 Z M322.751,93.464 L324.352,92.55 C324.275,92.398 324.16,92.055 324.01,91.521 C323.855,90.912 323.59,90.568 323.208,90.492 L322.064,89.463 L322.064,91.177 L323.208,90.377 L323.436,92.436 L322.294,92.321 L322.751,93.464 Z M320.808,105.928 C321.035,105.699 321.15,105.509 321.15,105.355 L321.035,105.128 C320.883,105.128 320.768,105.09 320.693,105.013 C320.539,105.166 320.465,105.355 320.465,105.584 L320.808,105.928 Z M321.035,95.18 L321.265,94.379 C321.265,94.075 321.073,93.733 320.693,93.35 L320.921,93.808 L320.579,94.837 C320.425,95.142 320.35,95.333 320.35,95.408 C320.35,95.637 320.465,95.942 320.693,96.324 L321.035,95.18 Z M321.493,88.09 C321.951,87.939 322.179,87.71 322.179,87.405 C322.179,87.176 322.064,86.967 321.837,86.776 C321.608,86.586 321.417,86.489 321.265,86.489 C320.959,86.489 320.768,86.529 320.693,86.604 L320.007,86.947 L321.493,88.09 Z M320.465,83.86 L320.808,83.288 L320.465,82.946 C320.389,83.098 319.931,83.594 319.092,84.431 C319.779,84.431 320.235,84.242 320.465,83.86 Z M320.007,106.842 L318.977,105.928 C318.749,106.462 318.672,106.768 318.749,106.842 C319.053,107.376 319.473,107.376 320.007,106.842 Z M318.977,84.431 C318.901,84.356 318.749,84.317 318.521,84.317 L318.406,85.232 L318.749,85.347 L318.977,84.431 Z M318.521,169.386 L318.406,169.386 L318.063,170.529 L318.406,170.644 L318.521,169.386 Z M329.84,107.642 C329.383,107.033 329.058,106.691 328.869,106.613 C328.678,106.539 328.162,106.499 327.325,106.499 C327.171,106.499 326.942,106.348 326.639,106.042 L325.838,105.47 L325.609,105.013 C325.609,104.784 325.838,104.555 326.296,104.326 L326.753,104.899 C326.981,105.433 327.362,105.547 327.896,105.241 C327.515,104.326 327.247,103.832 327.097,103.755 L325.152,103.755 L324.466,102.04 L324.924,101.925 C325.227,101.925 325.419,102.04 325.495,102.269 C325.799,102.803 326.257,103.068 326.867,103.068 L327.439,103.297 L328.354,102.612 L329.154,101.925 L329.154,101.468 C329.154,100.859 329.114,100.479 329.04,100.325 C328.886,99.716 328.81,99.335 328.81,99.182 C328.81,98.649 329.04,98.153 329.498,97.695 C329.954,97.238 330.222,96.895 330.298,96.666 L330.068,96.666 C329.612,96.666 329.268,96.856 329.04,97.238 L328.354,98.038 L324.924,98.496 L324.695,98.038 L324.81,97.238 C324.81,96.856 324.58,96.629 324.124,96.551 L324.01,99.296 L322.866,98.153 C322.866,98.609 322.826,98.877 322.751,98.953 L322.522,99.411 L322.294,99.296 L322.294,97.58 L320.921,97.695 L321.837,99.64 L321.608,99.752 L320.579,99.067 C320.425,99.752 319.893,100.287 318.977,100.668 L318.063,101.011 L318.977,102.154 C320.273,101.316 321.265,100.896 321.951,100.896 C322.408,100.896 322.866,101.011 323.322,101.239 L322.294,100.096 L323.322,99.64 L324.352,101.125 C324.199,101.279 324.084,101.545 324.01,101.925 C323.704,102.612 323.132,102.954 322.294,102.954 C322.141,102.574 321.912,102.365 321.608,102.326 C321.303,102.288 321.035,102.422 320.808,102.727 L320.693,102.727 C320.31,102.727 320.121,102.879 320.121,103.183 L319.779,103.87 C320.081,103.87 320.579,104.022 321.265,104.326 L324.124,105.584 L324.01,105.813 L324.01,106.042 C323.704,106.042 323.476,106.119 323.322,106.27 C323.17,106.424 323.095,106.577 323.095,106.728 C323.095,106.957 323.189,107.167 323.381,107.357 C323.569,107.547 323.817,107.605 324.124,107.528 L324.695,107.413 L324.466,106.499 C324.466,106.119 324.961,105.775 325.953,105.47 L326.296,107.3 L327.667,107.642 L328.81,107.871 L329.84,107.642 Z M318.063,172.473 L318.063,171.558 L317.606,171.673 C317.682,171.749 317.72,172.016 317.72,172.473 L318.063,172.473 Z M317.834,168.357 C317.224,168.282 316.863,168.282 316.749,168.357 C316.634,168.433 316.576,168.662 316.576,169.043 L317.834,168.357 Z M316.005,144.117 C316.386,144.422 316.614,144.556 316.69,144.517 C316.766,144.48 316.88,144.271 317.034,143.888 L316.005,144.117 Z M316.806,172.358 C316.652,172.207 316.5,171.901 316.349,171.444 L315.776,171.787 L316.463,172.587 L316.806,172.358 Z M315.547,118.848 C315.776,118.848 315.891,118.81 315.891,118.733 L315.776,117.933 L315.319,117.933 L315.547,118.848 Z M315.205,108.557 C315.662,108.557 316.156,108.444 316.69,108.215 L316.12,107.413 L315.205,108.557 Z M316.005,103.641 C315.547,102.803 315.128,102.803 314.747,103.641 L316.005,103.641 Z M315.205,161.381 C315.585,160.621 315.852,160.182 316.005,160.067 C316.156,159.953 316.5,159.972 317.034,160.124 C317.185,159.972 317.3,159.707 317.378,159.324 C317.606,158.638 318.063,158.22 318.749,158.066 L317.492,157.495 L314.633,160.467 L315.205,161.381 Z M315.091,135.998 C315.166,135.998 315.28,135.923 315.433,135.771 L315.776,135.542 L315.205,135.198 C315.051,135.198 314.918,135.276 314.806,135.427 C314.69,135.581 314.633,135.696 314.633,135.771 L315.091,135.998 Z M316.005,114.846 C315.319,114.16 314.785,114.16 314.404,114.846 L316.005,114.846 Z M314.747,94.037 C315.128,94.037 315.356,93.655 315.433,92.893 L314.177,93.35 L314.404,93.922 L314.747,94.037 Z M315.433,123.078 L315.205,122.622 L314.061,123.307 L314.291,123.65 L315.433,123.078 Z M314.177,115.417 C313.869,116.028 313.719,116.637 313.719,117.247 C313.719,117.629 314.022,118.01 314.633,118.39 L314.177,115.417 Z M314.633,82.831 C314.633,82.602 314.518,82.451 314.291,82.373 L313.261,82.373 L314.518,83.517 L314.633,82.831 Z M313.603,95.637 C313.908,95.637 314.177,95.522 314.404,95.293 L315.091,94.951 L314.291,94.722 C313.984,94.722 313.564,94.991 313.033,95.522 C313.107,95.6 313.299,95.637 313.603,95.637 Z M316.005,167.099 C316.08,167.024 316.27,166.984 316.576,166.984 L317.72,167.099 C318.102,167.099 318.443,166.948 318.749,166.642 C318.443,166.338 318.292,165.956 318.292,165.499 C318.063,164.583 317.758,164.126 317.378,164.126 C316.766,164.126 316.08,164.508 315.319,165.27 C314.557,165.804 313.679,166.033 312.689,165.956 L313.603,166.984 L316.234,165.613 L316.005,167.099 Z M314.977,141.83 L314.404,141.374 C313.719,140.992 313.147,140.992 312.689,141.374 C313.375,141.601 314.061,141.906 314.747,142.288 L314.977,141.83 Z M313.489,158.18 C313.719,158.409 313.984,158.523 314.291,158.523 C314.593,158.523 314.9,158.409 315.205,158.18 L314.518,157.838 C314.291,157.686 314.099,157.629 313.947,157.666 C313.793,157.705 313.642,157.915 313.489,158.294 L312.346,159.667 C312.575,160.049 312.804,160.238 313.033,160.238 C313.337,160.238 313.527,160.201 313.603,160.124 C313.679,160.049 313.793,160.011 313.947,160.011 L313.489,158.18 Z M313.489,102.154 C313.489,101.011 312.993,100.059 312.004,99.296 L312.004,99.64 C312.004,100.096 312.231,100.554 312.689,101.011 L313.489,102.154 Z M316.349,169.844 C316.043,169.386 315.547,169.234 314.861,169.386 L316.12,168.586 L314.861,167.328 L314.747,167.442 C314.822,167.519 314.861,167.671 314.861,167.899 L315.091,168.586 C314.251,167.977 313.603,167.633 313.147,167.557 C312.918,167.482 312.499,167.442 311.89,167.442 C312.041,167.824 312.175,168.033 312.289,168.071 C312.404,168.111 312.689,168.053 313.147,167.899 L313.375,168.814 L314.977,169.386 C315.128,170.3 315.7,170.644 316.69,170.415 L316.349,169.844 Z M314.061,112.331 C313.984,112.027 313.813,111.836 313.547,111.758 C313.278,111.683 312.993,111.721 312.689,111.873 L315.662,110.043 L313.719,109.244 L313.261,109.473 L313.489,110.501 L311.088,111.531 L311.546,113.13 C311.697,112.522 311.831,112.16 311.946,112.045 C312.06,111.931 312.307,111.873 312.689,111.873 L313.833,113.245 L314.061,112.331 Z M311.774,159.324 L310.632,159.095 C310.86,159.553 311.088,159.896 311.317,160.124 C311.47,159.744 311.621,159.478 311.774,159.324 Z M310.288,169.043 C310.288,168.053 310.632,167.213 311.317,166.528 L310.746,165.613 L310.288,169.043 Z M310.288,97.924 L310.059,98.724 C310.059,99.106 310.402,99.258 311.088,99.182 L310.288,97.924 Z M312.346,85.918 L311.774,85.46 L313.033,85.003 C312.649,84.774 312.307,84.66 312.004,84.66 C311.546,84.66 311.24,84.7 311.088,84.774 L310.059,85.118 L312.118,86.262 L312.346,85.918 Z M311.202,115.532 L310.975,115.074 C310.821,114.923 310.706,114.846 310.632,114.846 C310.477,114.846 310.212,115.074 309.831,115.532 L311.202,115.532 Z M309.717,87.747 C309.717,87.596 309.412,87.291 308.803,86.833 L309.373,88.434 L309.717,87.747 Z M313.719,171.901 L315.091,171.215 L313.947,169.729 C313.869,169.729 313.757,169.806 313.603,169.958 L314.177,170.987 L313.033,170.987 L312.804,169.844 L311.66,170.529 L311.66,171.102 L311.317,171.329 L310.402,170.873 L309.488,171.673 L309.488,171.102 C309.488,170.186 309.259,169.691 308.803,169.615 C308.803,170.454 308.763,170.912 308.688,170.987 C308.534,171.444 308.459,171.712 308.459,171.787 C308.459,172.169 308.725,172.512 309.259,172.816 C309.792,172.512 310.326,172.358 310.86,172.358 C311.317,172.358 312.041,172.473 313.033,172.702 C314.251,172.931 315.051,173.007 315.433,172.931 L313.719,171.901 Z M312.575,157.495 L312.346,156.351 C312.118,157.037 311.926,157.457 311.774,157.609 C311.621,157.609 311.506,157.571 311.432,157.495 C311.432,156.733 311.355,156.047 311.202,155.437 L312.231,155.437 C312.689,154.675 313.013,154.199 313.204,154.008 C313.393,153.818 313.719,153.721 314.177,153.721 L315.205,153.835 L314.633,155.437 L317.72,154.408 L317.034,155.893 L314.177,155.893 L314.518,157.151 C314.671,157 314.861,156.922 315.091,156.922 C315.394,156.922 315.7,157.037 316.005,157.266 C316.31,157.571 316.576,157.686 316.806,157.609 L316.576,156.809 L318.063,156.809 L318.406,149.376 C317.948,149.605 317.567,149.72 317.263,149.72 C316.652,149.72 315.966,149.262 315.205,148.347 L314.404,150.749 C313.869,150.52 313.564,150.445 313.489,150.52 C313.413,150.597 313.184,150.634 312.804,150.634 C312.346,150.634 312.118,150.216 312.118,149.376 C312.346,149.301 313.033,149.262 314.177,149.262 L314.177,148.919 L312.46,147.776 L312.118,149.376 C311.735,148.996 311.526,148.69 311.489,148.461 C311.45,148.232 311.584,147.967 311.89,147.662 L312.804,146.518 C312.879,146.594 312.918,146.785 312.918,147.089 L313.489,147.089 C313.719,147.167 313.833,147.167 313.833,147.089 C313.984,146.709 314.213,146.518 314.518,146.518 C314.977,146.518 315.319,146.633 315.547,146.862 C315.622,146.938 315.929,146.975 316.463,146.975 C316.994,146.975 317.529,146.823 318.063,146.518 L313.947,145.946 L312.918,147.089 L313.833,143.773 L312.118,142.859 L312.689,145.604 L309.717,146.175 C309.717,146.329 309.868,146.558 310.174,146.862 C310.402,147.243 310.363,147.547 310.059,147.776 C309.678,147.776 309.448,147.738 309.373,147.662 L309.144,147.662 C308.688,147.662 308.459,148.232 308.459,149.376 L310.517,148.805 L310.746,149.948 C310.746,150.254 310.592,150.559 310.288,150.863 C309.602,151.017 309.125,151.188 308.859,151.377 C308.591,151.568 308.459,151.854 308.459,152.235 C308.459,152.541 308.534,152.997 308.688,153.606 L309.944,153.264 L310.288,153.835 L310.975,153.493 C311.432,153.493 311.697,153.835 311.774,154.522 L311.317,155.437 C310.782,155.513 310.517,155.856 310.517,156.466 C310.517,157 310.648,157.4 310.917,157.666 C311.183,157.934 311.774,158.144 312.689,158.294 C312.613,158.22 312.575,157.951 312.575,157.495 Z M308.916,140.343 C308.992,140.343 309.104,140.268 309.259,140.115 L309.717,139.772 L309.373,139.314 C309.297,139.239 309.183,139.201 309.03,139.201 C308.803,139.354 308.61,139.543 308.459,139.772 L308.916,140.343 Z M317.378,100.096 C317.758,100.325 318.063,100.439 318.292,100.439 C318.672,100.439 318.882,100.307 318.921,100.04 C318.958,99.772 318.749,99.563 318.292,99.411 C317.909,99.258 317.834,99.029 318.063,98.724 L319.321,98.724 L319.321,98.496 L317.948,97.695 C318.711,97.163 319.092,96.629 319.092,96.095 C319.092,95.562 318.825,95.027 318.292,94.493 L316.463,94.151 L315.891,94.722 C316.12,94.951 316.349,95.066 316.576,95.066 C316.806,95.066 316.958,95.027 317.034,94.951 C317.109,94.876 317.263,94.837 317.492,94.837 L317.72,95.066 L317.148,96.324 C316.92,96.78 316.614,97.085 316.234,97.238 C315.852,97.391 315.091,97.543 313.947,97.695 L312.004,98.038 L312.46,94.493 L313.719,94.037 L312.918,92.665 C313.603,92.665 314.48,92.589 315.547,92.436 C315.852,92.436 316.234,92.207 316.69,91.75 C317.148,91.292 317.529,91.141 317.834,91.292 L317.834,90.034 C317.3,90.492 316.9,90.777 316.634,90.892 C316.365,91.006 316.08,90.948 315.776,90.721 C316.463,90.034 316.806,89.463 316.806,89.005 C316.806,88.625 316.424,88.205 315.662,87.747 L315.319,89.919 C315.091,90.377 315.242,90.646 315.776,90.721 L314.404,92.321 L313.375,90.948 C312.765,91.177 312.421,91.332 312.346,91.406 L312.346,89.578 C312.421,89.654 312.535,89.692 312.689,89.692 L313.147,90.148 C312.993,89.616 312.841,89.291 312.689,89.177 C312.535,89.063 312.231,88.968 311.774,88.891 C311.697,88.739 311.66,88.205 311.66,87.291 C311.202,87.747 310.975,88.052 310.975,88.205 C310.975,88.359 311.24,88.586 311.774,88.891 L310.517,89.578 C311.355,89.73 311.774,90.034 311.774,90.492 C311.774,90.721 311.735,90.874 311.66,90.948 L311.432,91.406 L312.918,92.55 L311.89,94.037 L310.517,90.606 L310.174,91.75 L308.23,89.919 C308.459,91.141 308.61,92.131 308.688,92.893 L309.831,92.55 L309.144,94.264 L308.459,93.922 L308.23,94.037 L309.259,95.751 L309.488,94.722 L311.66,95.293 C311.506,95.905 311.432,96.324 311.432,96.551 C311.432,97.009 311.66,97.466 312.118,97.924 C312.193,98.307 312.499,98.572 313.033,98.724 C313.642,98.953 313.984,99.182 314.061,99.411 L314.977,98.724 C315.051,98.649 315.091,98.496 315.091,98.267 C314.936,98.114 314.936,97.924 315.091,97.695 C315.7,98.229 316.043,98.687 316.12,99.067 C316.194,99.144 316.156,99.45 316.005,99.981 L315.776,100.782 C315.776,101.316 316.043,101.85 316.576,102.383 C317.034,101.011 317.3,100.25 317.378,100.096 Z M309.03,177.39 C307.505,177.312 306.304,176.857 305.429,176.018 C304.551,175.179 304.114,174.074 304.114,172.702 L304.114,164.47 L304.228,160.467 L304.228,147.547 L304.228,139.428 L304,128.337 L304.114,121.82 L304,110.272 L304.114,106.842 C304.189,106.462 304.228,105.355 304.228,103.526 L304,92.436 L304.228,85.689 L304.228,81.344 C304.304,80.201 304.78,79.192 305.657,78.314 C306.532,77.439 307.545,77 308.688,77 C310.363,77.076 315.966,77.114 325.495,77.114 C326.485,77.114 327.515,77.496 328.583,78.257 C329.648,79.021 330.373,79.897 330.756,80.888 L332.355,85.804 L334.413,92.092 L338.873,104.784 L341.617,113.359 C342.227,115.266 342.876,117.133 343.561,118.962 L345.963,125.938 C346.723,128.072 347.562,130.778 348.477,134.055 C349.086,135.961 349.888,137.981 350.878,140.115 L350.422,140.115 C350.573,139.506 350.649,139.086 350.649,138.857 C350.649,135.276 350.611,133.14 350.536,132.455 C350.536,130.625 350.497,129.559 350.422,129.253 L350.308,124.336 L350.078,118.848 L350.078,116.105 L349.85,106.957 L349.735,104.67 L349.506,100.21 L349.62,98.153 C349.695,97.849 349.658,96.171 349.506,93.121 C349.43,92.741 349.393,91.332 349.393,88.891 C349.393,86.987 349.353,85.843 349.278,85.46 L349.164,81.802 C349.164,80.43 349.639,79.287 350.593,78.372 C351.546,77.458 352.709,77.039 354.08,77.114 L363.798,77.114 C365.323,77.114 366.467,77.725 367.228,78.943 C367.686,79.401 367.916,80.086 367.916,81.001 L367.801,87.747 C367.801,89.578 367.838,90.683 367.916,91.063 C367.99,91.521 368.03,92.36 368.03,93.579 C367.952,93.962 367.916,94.571 367.916,95.408 L367.916,99.867 C367.99,100.325 368.03,101.165 368.03,102.383 C367.952,102.766 367.916,103.412 367.916,104.326 L367.916,108.9 L367.916,111.873 L367.916,114.389 L367.801,115.99 L367.916,117.819 L368.03,121.478 L367.916,124.909 C367.838,125.214 367.801,126.279 367.801,128.11 L368.03,133.712 L368.03,142.402 C368.03,147.586 367.99,150.634 367.916,151.548 C367.916,156.657 367.952,159.667 368.03,160.582 L368.03,169.5 L368.144,172.587 C368.144,173.96 367.857,175.028 367.287,175.789 C366.714,176.552 365.743,177.01 364.371,177.161 C363.837,177.236 362.159,177.275 359.341,177.275 L350.536,177.161 C348.858,177.161 347.581,176.952 346.706,176.532 C345.828,176.114 345.219,175.618 344.876,175.045 C344.533,174.474 344.056,173.387 343.446,171.787 L341.045,165.155 L340.017,162.297 L335.557,150.063 L330.869,137.256 L327.097,126.737 L322.064,113.359 C321.988,113.209 321.912,113.036 321.837,112.845 C321.759,112.656 321.683,112.445 321.608,112.216 L322.064,112.216 L322.064,115.532 L322.064,118.048 L321.951,119.762 L322.064,121.82 C322.064,126.623 322.102,129.444 322.179,130.282 L322.637,150.52 L322.866,173.274 C322.866,175.637 321.683,176.932 319.321,177.161 C319.167,177.236 318.787,177.275 318.178,177.275 C317.643,177.275 317.3,177.236 317.148,177.161 C316.08,177.161 315.356,177.199 314.977,177.275 L309.03,177.39 Z" id="Fill-19" fill="#FFFFFF"></path>
                <g id="Group-23" transform="translate(450.000000, 75.000000)">
                    <mask id="mask-2" fill="white">
                        <use xlink:href="#path-1"></use>
                    </mask>
                    <g id="Clip-22"></g>
                    <path d="M31.672,35.988 L29.957,36.445 L30.299,37.246 L31.672,35.988 Z M29.385,29.356 C29.765,29.281 29.994,29.167 30.071,29.012 C30.147,28.862 30.147,28.518 30.071,27.984 L29.385,29.356 Z M29.957,33.129 L29.957,32.214 C29.957,31.758 30.032,31.453 30.185,31.3 L30.185,30.956 C30.109,30.881 30.071,30.614 30.071,30.156 L29.613,31.414 C29.46,31.87 29.271,32.214 29.041,32.443 C28.585,32.519 28.47,32.863 28.699,33.472 C28.851,33.777 29.041,34.083 29.271,34.386 C29.729,34.006 29.957,33.586 29.957,33.129 Z M28.699,29.127 L28.356,29.127 L28.356,29.356 C28.356,29.585 28.545,30.005 28.928,30.614 C28.928,30.232 28.851,29.738 28.699,29.127 Z M28.47,40.904 L28.47,40.333 L28.127,40.333 L28.241,40.904 L28.47,40.904 Z M29.041,23.868 L28.928,23.639 L28.127,23.982 L28.47,24.21 L29.041,23.868 Z M28.585,38.96 C28.509,38.885 28.47,38.731 28.47,38.502 C28.851,38.351 29.155,38.122 29.385,37.817 C29.613,37.513 29.765,37.246 29.843,37.017 C29.918,36.788 29.994,36.598 30.071,36.445 L28.241,35.873 C28.47,35.644 28.851,35.455 29.385,35.301 L29.155,34.959 L29.041,34.844 C28.736,34.921 28.279,35.264 27.67,35.873 L28.241,35.644 C28.241,35.949 28.201,36.14 28.127,36.216 C28.051,36.445 28.051,36.598 28.127,36.673 C28.279,37.131 28.356,37.437 28.356,37.588 C28.356,38.122 28.394,38.466 28.47,38.617 L28.013,39.074 C28.013,39.151 28.241,39.418 28.699,39.875 C28.699,39.342 28.659,39.036 28.585,38.96 Z M28.699,96.701 L27.785,96.015 C27.631,96.17 27.556,96.284 27.556,96.359 L28.585,96.93 L28.699,96.701 Z M27.556,91.556 C27.707,91.405 28.013,91.327 28.47,91.327 C28.928,91.327 29.155,91.099 29.155,90.642 C28.928,90.718 28.545,90.87 28.013,91.099 L27.556,91.556 Z M27.9,42.962 L27.67,41.933 L27.442,41.933 C27.442,42.467 27.401,42.81 27.327,42.962 L27.9,42.962 Z M27.785,21.467 C27.785,21.238 27.821,21.086 27.9,21.009 C27.442,21.086 27.193,21.162 27.155,21.238 C27.116,21.314 27.212,21.543 27.442,21.923 L27.785,21.467 Z M27.67,39.875 C27.442,39.646 27.25,39.531 27.098,39.531 L26.869,39.875 L27.327,40.333 L27.67,39.875 Z M27.098,33.93 C27.631,33.626 27.974,33.472 28.127,33.472 C27.9,33.243 27.67,33.129 27.442,33.129 C27.212,33.129 27.022,33.243 26.869,33.472 L27.098,33.93 Z M26.869,24.324 L27.327,24.324 C27.478,24.402 27.593,24.402 27.67,24.324 C27.974,24.324 28.431,24.173 29.041,23.868 L29.271,23.181 L29.613,22.724 L29.843,22.266 L29.613,21.81 C29.46,21.657 29.385,21.543 29.385,21.467 L29.499,21.009 C29.499,20.857 29.385,20.743 29.155,20.666 L28.47,20.437 C28.621,21.048 28.699,21.506 28.699,21.81 C28.699,22.877 28.431,23.449 27.9,23.524 C27.9,23.144 27.859,22.915 27.785,22.839 C27.707,22.764 27.67,22.572 27.67,22.266 L27.212,22.953 L26.869,23.524 L26.869,24.324 Z M27.098,17.807 C26.945,17.961 26.869,18.113 26.869,18.265 C26.869,18.419 26.927,18.514 27.041,18.551 C27.155,18.59 27.25,18.647 27.327,18.721 C27.173,18.265 27.098,17.961 27.098,17.807 Z M26.642,32.328 C26.487,32.328 26.412,32.214 26.412,31.985 C26.412,31.529 26.642,30.842 27.098,29.927 C27.098,30.614 27.059,30.996 26.984,31.071 C26.984,31.376 26.945,31.568 26.869,31.643 L26.642,32.328 Z M26.984,87.783 L27.442,86.068 C26.526,86.982 26.068,87.631 26.068,88.011 L26.642,89.04 L26.984,87.783 Z M26.526,81.723 C26.526,81.571 26.449,81.494 26.298,81.494 L25.84,82.181 L26.068,82.296 L26.526,81.723 Z M25.84,34.501 C25.534,35.264 25.42,35.644 25.498,35.644 L26.068,35.873 C26.298,36.102 26.526,36.255 26.756,36.33 L25.84,34.501 Z M25.612,42.847 C25.612,42.467 25.84,42.276 26.298,42.276 C26.678,42.43 26.869,42.316 26.869,41.933 L25.269,41.018 L25.154,42.734 L25.612,43.191 L25.612,42.847 Z M25.612,21.923 C25.764,21.923 25.84,21.886 25.84,21.81 L25.269,20.666 C25.269,20.819 25.193,20.894 25.04,20.894 L25.612,21.923 Z M24.926,92.928 C25.383,93.385 25.707,93.597 25.898,93.557 C26.087,93.519 26.258,93.31 26.412,92.928 L24.926,92.928 Z M25.612,39.646 C25.612,39.418 25.878,39.036 26.412,38.502 L25.269,37.931 L24.926,39.418 C24.926,39.875 25.193,40.258 25.726,40.562 L25.612,39.646 Z M25.383,92.129 L25.84,91.9 L26.298,91.556 C25.458,91.556 24.964,91.595 24.811,91.671 C25.04,91.976 25.23,92.129 25.383,92.129 Z M26.184,56.225 C26.184,55.465 25.878,55.159 25.269,55.311 L24.811,55.425 C24.964,55.654 25.42,55.996 26.184,56.454 L26.184,56.225 Z M26.869,46.163 L26.869,45.821 L24.811,45.019 L25.383,46.736 L26.869,46.163 Z M24.811,41.247 C25.344,41.018 25.764,40.752 26.068,40.447 C26.298,40.218 26.222,39.952 25.84,39.646 L24.811,41.247 Z M25.84,32.786 L25.498,32.328 L25.154,31.985 C25.078,31.985 25.04,32.025 25.04,32.099 L24.811,32.214 L25.612,33.014 L25.84,32.786 Z M25.498,60.684 L24.583,60.455 L24.583,60.913 C25.114,60.913 25.42,60.953 25.498,61.028 L25.498,60.684 Z M24.811,23.639 C25.193,23.259 25.534,23.066 25.84,23.066 L25.383,22.381 C25.23,22.23 25.114,22.152 25.04,22.152 C24.811,22.152 24.62,22.306 24.469,22.61 C24.315,22.915 24.315,23.106 24.469,23.181 L24.811,23.639 Z M24.811,34.216 C24.735,34.101 24.469,34.006 24.011,33.93 C24.162,34.235 24.469,34.615 24.926,35.073 C24.926,34.615 24.886,34.33 24.811,34.216 Z M25.154,35.988 C24.849,36.673 24.355,36.902 23.667,36.673 C23.897,36.75 24.049,36.942 24.125,37.246 C24.2,37.779 24.296,38.122 24.411,38.275 C24.526,38.427 24.773,38.427 25.154,38.275 L25.154,35.988 Z M23.897,90.071 L24.355,89.498 C24.811,89.04 24.773,88.738 24.24,88.584 L23.44,89.956 L23.897,90.071 Z M24.24,30.156 C23.553,31.529 23.211,32.29 23.211,32.443 L23.44,34.615 L24.24,34.272 L25.154,33.93 C25,34.464 24.886,34.769 24.811,34.844 C25.269,34.997 25.534,35.186 25.612,35.415 L25.84,35.873 C25.84,36.102 25.915,36.293 26.068,36.445 L27.098,35.301 L26.068,34.501 L25.154,33.93 C25.154,33.472 25.04,33.206 24.811,33.129 L24.811,33.014 L24.696,33.014 C24.62,33.014 24.583,33.053 24.583,33.129 L24.355,33.472 L24.011,33.472 C23.782,33.243 23.667,33.092 23.667,33.014 C24.049,32.405 24.276,31.719 24.355,30.956 C23.897,31.11 23.553,31.185 23.325,31.185 C23.477,30.956 23.667,30.767 23.897,30.614 L24.24,30.156 Z M23.44,35.53 C23.286,35.301 23.097,35.112 22.867,34.959 C22.943,35.415 23.021,35.701 23.097,35.815 C23.171,35.93 23.477,36.064 24.011,36.216 L23.44,35.53 Z M24.011,92.243 L22.639,91.785 C22.639,92.396 22.905,92.663 23.44,92.585 L24.011,92.585 L24.011,92.243 Z M26.642,31.414 C27.478,30.805 27.9,30.347 27.9,30.042 C27.9,29.813 27.707,29.396 27.327,28.783 C27.327,29.167 27.25,29.432 27.098,29.585 L27.098,30.385 C26.792,30.385 26.602,30.425 26.526,30.5 C26.449,30.576 26.222,30.614 25.84,30.614 L25.84,29.927 C26.373,29.623 26.642,29.012 26.642,28.098 L25.154,28.098 C25.306,28.098 25.383,27.946 25.383,27.64 C25.23,27.26 25.383,27.223 25.84,27.526 L26.412,27.184 L26.869,26.84 L27.442,26.84 C27.745,26.84 27.9,26.955 27.9,27.184 C27.9,27.336 27.821,27.64 27.67,28.098 L27.785,28.098 C28.087,28.098 28.279,27.984 28.356,27.755 C28.431,27.374 28.775,27.109 29.385,26.955 L30.071,26.84 L30.299,24.324 C30.071,24.553 29.613,24.782 28.928,25.011 C28.241,25.317 27.821,25.697 27.67,26.155 C27.593,26.231 27.478,26.269 27.327,26.269 C26.945,26.269 26.716,26.231 26.642,26.155 C26.258,25.697 25.802,25.622 25.269,25.926 C25.114,26.08 24.964,26.097 24.811,25.982 C24.658,25.868 24.583,25.697 24.583,25.468 C24.583,25.393 24.658,25.297 24.811,25.182 C24.964,25.068 25.078,25.011 25.154,25.011 C25.534,25.011 25.783,24.973 25.898,24.897 C26.013,24.822 26.068,24.63 26.068,24.324 L25.954,24.097 C25.878,24.02 25.84,23.907 25.84,23.753 L25.04,24.668 L23.782,24.324 C23.857,24.478 23.935,24.65 24.011,24.839 C24.086,25.031 24.162,25.239 24.24,25.468 C23.857,25.468 23.362,25.353 22.753,25.126 C22.753,25.965 22.791,26.422 22.867,26.497 L24.355,26.269 L24.583,27.184 C24.583,27.565 24.315,27.755 23.782,27.755 L24.011,27.298 C24.011,27.069 24.086,26.88 24.24,26.726 C23.325,27.109 22.791,27.394 22.639,27.584 C22.485,27.775 22.447,28.175 22.525,28.783 L23.667,28.442 L25.154,28.098 L25.154,31.185 L26.068,30.614 L26.642,31.414 Z M22.068,32.443 C22.297,32.443 22.563,32.348 22.867,32.157 C23.171,31.968 23.362,31.719 23.44,31.414 C23.591,31.185 23.477,30.956 23.097,30.727 L22.068,32.443 Z M21.495,35.759 L21.268,35.988 C21.343,35.988 21.476,35.93 21.667,35.815 C21.857,35.701 21.989,35.53 22.068,35.301 C21.989,35.301 21.799,35.455 21.495,35.759 Z M20.58,36.673 L23.211,36.445 L22.982,35.53 L23.667,35.186 L22.525,34.157 C22.828,33.548 23.057,33.168 23.211,33.014 C23.362,32.863 23.782,32.672 24.469,32.443 C24.469,32.901 24.62,33.206 24.926,33.358 C25.23,33.511 25.498,33.434 25.726,33.129 C25.954,32.901 26.144,32.863 26.298,33.014 L26.526,33.243 L20.58,36.673 Z M20.81,29.927 L20.58,29.927 L20.58,31.985 L20.81,29.927 Z M19.895,41.476 C19.895,41.247 20.237,41.018 20.924,40.789 L21.724,42.39 L20.695,44.105 L22.753,44.906 L21.724,46.278 L22.867,46.965 C23.401,46.66 23.667,46.24 23.667,45.706 C23.667,45.403 23.553,45.019 23.325,44.563 C23.935,44.717 24.355,44.906 24.583,45.134 L23.782,43.42 L23.097,43.649 L22.182,43.99 L21.839,41.018 L23.325,40.904 L23.325,41.704 C23.325,41.933 23.42,42.087 23.611,42.161 C23.8,42.238 24.049,42.276 24.355,42.276 L23.325,40.904 L22.409,39.531 C22.713,39.38 23.021,39.151 23.325,38.846 L22.525,38.389 L22.182,39.303 C22.028,39.76 21.724,40.066 21.268,40.218 L21.038,39.531 C20.885,39.303 20.961,39.036 21.268,38.731 C21.419,38.58 21.609,38.16 21.839,37.473 C20.541,40.524 19.895,41.858 19.895,41.476 Z M20.466,46.85 C20.466,46.546 20.237,45.935 19.78,45.019 C20.237,46.621 20.466,47.232 20.466,46.85 Z M20.352,13.119 C20.276,13.044 20.237,12.931 20.237,12.777 L19.208,13.006 L19.208,13.233 L20.352,13.119 Z M15.893,9.69 L14.292,9.461 L14.749,10.604 L15.893,9.69 Z M11.433,7.517 C11.357,7.136 11.013,6.565 10.404,5.801 L8.918,6.945 L10.404,7.288 L11.32,7.86 L11.433,7.517 Z M6.746,13.233 C6.821,13.158 7.05,13.119 7.432,13.119 C7.432,12.891 7.392,12.739 7.318,12.662 L6.632,13.006 L6.746,13.233 Z M7.432,9.003 L6.517,8.888 C6.441,8.966 6.402,9.081 6.402,9.232 L7.318,9.461 L7.432,9.003 Z M9.489,9.69 C9.489,9.157 9.223,8.888 8.69,8.888 C8.613,8.966 8.575,9.117 8.575,9.346 L8.69,10.261 C8.69,10.644 8.346,10.909 7.66,11.061 L7.432,10.146 L6.632,10.375 C6.554,10.452 6.441,10.452 6.288,10.375 L5.832,10.375 C6.363,11.367 6.86,11.862 7.318,11.862 C7.697,11.862 8.384,11.634 9.375,11.176 C9.45,10.947 9.489,10.452 9.489,9.69 Z M21.381,101.618 C20.237,101.618 19.303,101.258 18.579,100.531 C17.855,99.809 17.454,98.76 17.379,97.388 L17.493,94.987 L17.379,88.469 L17.609,75.32 C17.609,74.405 17.568,73.833 17.493,73.604 C17.417,73.377 17.379,72.882 17.379,72.119 L17.493,67.087 L17.379,62.171 L17.609,56.683 L17.493,53.823 C17.417,52.681 17.379,49.022 17.379,42.847 C17.379,39.114 17.417,36.902 17.493,36.216 L17.609,29.356 L17.609,20.094 C17.609,19.637 17.493,18.836 17.265,17.693 L9.148,17.693 L6.632,17.807 C5.183,17.807 3.619,17.618 1.943,17.236 C1.486,17.083 1.104,16.798 0.8,16.378 C0.494,15.96 0.344,15.484 0.344,14.949 L0.114,9.461 L0,6.716 L0.114,4.429 C0.114,3.44 0.323,2.676 0.743,2.142 C1.16,1.611 1.903,1.305 2.973,1.228 C3.276,1.153 4.459,1.114 6.517,1.114 L8.918,1.114 L10.747,1.114 L11.776,1.228 L12.92,1.114 L19.208,1 L21.839,1.114 L26.412,1 L30.643,1.114 L35.56,1 L40.476,1.114 L48.822,1 C50.042,1.076 51.109,1.438 52.025,2.086 C52.94,2.735 53.396,3.629 53.396,4.773 C53.471,5.612 53.51,8.394 53.51,13.119 C53.51,15.178 52.71,16.627 51.109,17.465 C50.652,17.693 50.194,17.807 49.737,17.807 L40.361,17.807 L35.787,17.578 L35.787,20.437 L35.673,31.529 L35.673,40.218 L35.673,58.055 C35.673,66.058 35.635,70.746 35.56,72.119 L35.673,85.497 C35.673,92.434 35.635,96.511 35.56,97.731 C35.56,100.171 34.339,101.467 31.901,101.618 L21.381,101.618 Z" id="Fill-21" fill="#FFFFFF" mask="url(#mask-2)"></path>
                </g>
            </g>
        </g>
    </g>
</svg>